<?xml version="1.0" encoding="utf-8" standalone="no"?>
<!DOCTYPE svg PUBLIC "-//W3C//DTD SVG 1.1//EN"
  "http://www.w3.org/Graphics/SVG/1.1/DTD/svg11.dtd">
<!-- Created with matplotlib (http://matplotlib.org/) -->
<svg height="432pt" version="1.1" viewBox="0 0 648 432" width="648pt" xmlns="http://www.w3.org/2000/svg" xmlns:xlink="http://www.w3.org/1999/xlink">
 <defs>
  <style type="text/css">
*{stroke-linecap:butt;stroke-linejoin:round;}
  </style>
 </defs>
 <g id="figure_1">
  <g id="patch_1">
   <path d="M 0 432 
L 648 432 
L 648 0 
L 0 0 
z
" style="fill:#ffffff;"/>
  </g>
  <g id="axes_1">
   <g id="patch_2">
    <path d="M 81 378 
L 583.2 378 
L 583.2 51.84 
L 81 51.84 
z
" style="fill:#fffaf0;"/>
   </g>
   <g id="matplotlib.axis_1">
    <g id="xtick_1">
     <g id="line2d_1">
      <path clip-path="url(#pe1e6bf65eb)" d="M 103.827273 378 
L 103.827273 51.84 
" style="fill:none;stroke:#ffdab9;stroke-linecap:square;stroke-width:0.8;"/>
     </g>
     <g id="line2d_2">
      <defs>
       <path d="M 0 0 
L 0 3.5 
" id="md26d220fd5" style="stroke:#000000;stroke-width:0.8;"/>
      </defs>
      <g>
       <use style="stroke:#000000;stroke-width:0.8;" x="103.827273" xlink:href="#md26d220fd5" y="378"/>
      </g>
     </g>
     <g id="text_1">
      <!-- 0 -->
      <defs>
       <path d="M 31.78125 66.40625 
Q 24.171875 66.40625 20.328125 58.90625 
Q 16.5 51.421875 16.5 36.375 
Q 16.5 21.390625 20.328125 13.890625 
Q 24.171875 6.390625 31.78125 6.390625 
Q 39.453125 6.390625 43.28125 13.890625 
Q 47.125 21.390625 47.125 36.375 
Q 47.125 51.421875 43.28125 58.90625 
Q 39.453125 66.40625 31.78125 66.40625 
z
M 31.78125 74.21875 
Q 44.046875 74.21875 50.515625 64.515625 
Q 56.984375 54.828125 56.984375 36.375 
Q 56.984375 17.96875 50.515625 8.265625 
Q 44.046875 -1.421875 31.78125 -1.421875 
Q 19.53125 -1.421875 13.0625 8.265625 
Q 6.59375 17.96875 6.59375 36.375 
Q 6.59375 54.828125 13.0625 64.515625 
Q 19.53125 74.21875 31.78125 74.21875 
z
" id="DejaVuSans-30"/>
      </defs>
      <g transform="translate(100.646023 392.598437)scale(0.1 -0.1)">
       <use xlink:href="#DejaVuSans-30"/>
      </g>
     </g>
    </g>
    <g id="xtick_2">
     <g id="line2d_3">
      <path clip-path="url(#pe1e6bf65eb)" d="M 195.136364 378 
L 195.136364 51.84 
" style="fill:none;stroke:#ffdab9;stroke-linecap:square;stroke-width:0.8;"/>
     </g>
     <g id="line2d_4">
      <g>
       <use style="stroke:#000000;stroke-width:0.8;" x="195.136364" xlink:href="#md26d220fd5" y="378"/>
      </g>
     </g>
     <g id="text_2">
      <!-- 20 -->
      <defs>
       <path d="M 19.1875 8.296875 
L 53.609375 8.296875 
L 53.609375 0 
L 7.328125 0 
L 7.328125 8.296875 
Q 12.9375 14.109375 22.625 23.890625 
Q 32.328125 33.6875 34.8125 36.53125 
Q 39.546875 41.84375 41.421875 45.53125 
Q 43.3125 49.21875 43.3125 52.78125 
Q 43.3125 58.59375 39.234375 62.25 
Q 35.15625 65.921875 28.609375 65.921875 
Q 23.96875 65.921875 18.8125 64.3125 
Q 13.671875 62.703125 7.8125 59.421875 
L 7.8125 69.390625 
Q 13.765625 71.78125 18.9375 73 
Q 24.125 74.21875 28.421875 74.21875 
Q 39.75 74.21875 46.484375 68.546875 
Q 53.21875 62.890625 53.21875 53.421875 
Q 53.21875 48.921875 51.53125 44.890625 
Q 49.859375 40.875 45.40625 35.40625 
Q 44.1875 33.984375 37.640625 27.21875 
Q 31.109375 20.453125 19.1875 8.296875 
z
" id="DejaVuSans-32"/>
      </defs>
      <g transform="translate(188.773864 392.598437)scale(0.1 -0.1)">
       <use xlink:href="#DejaVuSans-32"/>
       <use x="63.623047" xlink:href="#DejaVuSans-30"/>
      </g>
     </g>
    </g>
    <g id="xtick_3">
     <g id="line2d_5">
      <path clip-path="url(#pe1e6bf65eb)" d="M 286.445455 378 
L 286.445455 51.84 
" style="fill:none;stroke:#ffdab9;stroke-linecap:square;stroke-width:0.8;"/>
     </g>
     <g id="line2d_6">
      <g>
       <use style="stroke:#000000;stroke-width:0.8;" x="286.445455" xlink:href="#md26d220fd5" y="378"/>
      </g>
     </g>
     <g id="text_3">
      <!-- 40 -->
      <defs>
       <path d="M 37.796875 64.3125 
L 12.890625 25.390625 
L 37.796875 25.390625 
z
M 35.203125 72.90625 
L 47.609375 72.90625 
L 47.609375 25.390625 
L 58.015625 25.390625 
L 58.015625 17.1875 
L 47.609375 17.1875 
L 47.609375 0 
L 37.796875 0 
L 37.796875 17.1875 
L 4.890625 17.1875 
L 4.890625 26.703125 
z
" id="DejaVuSans-34"/>
      </defs>
      <g transform="translate(280.082955 392.598437)scale(0.1 -0.1)">
       <use xlink:href="#DejaVuSans-34"/>
       <use x="63.623047" xlink:href="#DejaVuSans-30"/>
      </g>
     </g>
    </g>
    <g id="xtick_4">
     <g id="line2d_7">
      <path clip-path="url(#pe1e6bf65eb)" d="M 377.754545 378 
L 377.754545 51.84 
" style="fill:none;stroke:#ffdab9;stroke-linecap:square;stroke-width:0.8;"/>
     </g>
     <g id="line2d_8">
      <g>
       <use style="stroke:#000000;stroke-width:0.8;" x="377.754545" xlink:href="#md26d220fd5" y="378"/>
      </g>
     </g>
     <g id="text_4">
      <!-- 60 -->
      <defs>
       <path d="M 33.015625 40.375 
Q 26.375 40.375 22.484375 35.828125 
Q 18.609375 31.296875 18.609375 23.390625 
Q 18.609375 15.53125 22.484375 10.953125 
Q 26.375 6.390625 33.015625 6.390625 
Q 39.65625 6.390625 43.53125 10.953125 
Q 47.40625 15.53125 47.40625 23.390625 
Q 47.40625 31.296875 43.53125 35.828125 
Q 39.65625 40.375 33.015625 40.375 
z
M 52.59375 71.296875 
L 52.59375 62.3125 
Q 48.875 64.0625 45.09375 64.984375 
Q 41.3125 65.921875 37.59375 65.921875 
Q 27.828125 65.921875 22.671875 59.328125 
Q 17.53125 52.734375 16.796875 39.40625 
Q 19.671875 43.65625 24.015625 45.921875 
Q 28.375 48.1875 33.59375 48.1875 
Q 44.578125 48.1875 50.953125 41.515625 
Q 57.328125 34.859375 57.328125 23.390625 
Q 57.328125 12.15625 50.6875 5.359375 
Q 44.046875 -1.421875 33.015625 -1.421875 
Q 20.359375 -1.421875 13.671875 8.265625 
Q 6.984375 17.96875 6.984375 36.375 
Q 6.984375 53.65625 15.1875 63.9375 
Q 23.390625 74.21875 37.203125 74.21875 
Q 40.921875 74.21875 44.703125 73.484375 
Q 48.484375 72.75 52.59375 71.296875 
z
" id="DejaVuSans-36"/>
      </defs>
      <g transform="translate(371.392045 392.598437)scale(0.1 -0.1)">
       <use xlink:href="#DejaVuSans-36"/>
       <use x="63.623047" xlink:href="#DejaVuSans-30"/>
      </g>
     </g>
    </g>
    <g id="xtick_5">
     <g id="line2d_9">
      <path clip-path="url(#pe1e6bf65eb)" d="M 469.063636 378 
L 469.063636 51.84 
" style="fill:none;stroke:#ffdab9;stroke-linecap:square;stroke-width:0.8;"/>
     </g>
     <g id="line2d_10">
      <g>
       <use style="stroke:#000000;stroke-width:0.8;" x="469.063636" xlink:href="#md26d220fd5" y="378"/>
      </g>
     </g>
     <g id="text_5">
      <!-- 80 -->
      <defs>
       <path d="M 31.78125 34.625 
Q 24.75 34.625 20.71875 30.859375 
Q 16.703125 27.09375 16.703125 20.515625 
Q 16.703125 13.921875 20.71875 10.15625 
Q 24.75 6.390625 31.78125 6.390625 
Q 38.8125 6.390625 42.859375 10.171875 
Q 46.921875 13.96875 46.921875 20.515625 
Q 46.921875 27.09375 42.890625 30.859375 
Q 38.875 34.625 31.78125 34.625 
z
M 21.921875 38.8125 
Q 15.578125 40.375 12.03125 44.71875 
Q 8.5 49.078125 8.5 55.328125 
Q 8.5 64.0625 14.71875 69.140625 
Q 20.953125 74.21875 31.78125 74.21875 
Q 42.671875 74.21875 48.875 69.140625 
Q 55.078125 64.0625 55.078125 55.328125 
Q 55.078125 49.078125 51.53125 44.71875 
Q 48 40.375 41.703125 38.8125 
Q 48.828125 37.15625 52.796875 32.3125 
Q 56.78125 27.484375 56.78125 20.515625 
Q 56.78125 9.90625 50.3125 4.234375 
Q 43.84375 -1.421875 31.78125 -1.421875 
Q 19.734375 -1.421875 13.25 4.234375 
Q 6.78125 9.90625 6.78125 20.515625 
Q 6.78125 27.484375 10.78125 32.3125 
Q 14.796875 37.15625 21.921875 38.8125 
z
M 18.3125 54.390625 
Q 18.3125 48.734375 21.84375 45.5625 
Q 25.390625 42.390625 31.78125 42.390625 
Q 38.140625 42.390625 41.71875 45.5625 
Q 45.3125 48.734375 45.3125 54.390625 
Q 45.3125 60.0625 41.71875 63.234375 
Q 38.140625 66.40625 31.78125 66.40625 
Q 25.390625 66.40625 21.84375 63.234375 
Q 18.3125 60.0625 18.3125 54.390625 
z
" id="DejaVuSans-38"/>
      </defs>
      <g transform="translate(462.701136 392.598437)scale(0.1 -0.1)">
       <use xlink:href="#DejaVuSans-38"/>
       <use x="63.623047" xlink:href="#DejaVuSans-30"/>
      </g>
     </g>
    </g>
    <g id="xtick_6">
     <g id="line2d_11">
      <path clip-path="url(#pe1e6bf65eb)" d="M 560.372727 378 
L 560.372727 51.84 
" style="fill:none;stroke:#ffdab9;stroke-linecap:square;stroke-width:0.8;"/>
     </g>
     <g id="line2d_12">
      <g>
       <use style="stroke:#000000;stroke-width:0.8;" x="560.372727" xlink:href="#md26d220fd5" y="378"/>
      </g>
     </g>
     <g id="text_6">
      <!-- 100 -->
      <defs>
       <path d="M 12.40625 8.296875 
L 28.515625 8.296875 
L 28.515625 63.921875 
L 10.984375 60.40625 
L 10.984375 69.390625 
L 28.421875 72.90625 
L 38.28125 72.90625 
L 38.28125 8.296875 
L 54.390625 8.296875 
L 54.390625 0 
L 12.40625 0 
z
" id="DejaVuSans-31"/>
      </defs>
      <g transform="translate(550.828977 392.598437)scale(0.1 -0.1)">
       <use xlink:href="#DejaVuSans-31"/>
       <use x="63.623047" xlink:href="#DejaVuSans-30"/>
       <use x="127.246094" xlink:href="#DejaVuSans-30"/>
      </g>
     </g>
    </g>
    <g id="text_7">
     <!-- Time (ms) -->
     <defs>
      <path d="M 57.859375 66.21875 
L 58.59375 50.6875 
L 56.734375 50.6875 
Q 56.203125 54.78125 55.28125 56.546875 
Q 53.765625 59.375 51.25 60.71875 
Q 48.734375 62.0625 44.625 62.0625 
L 35.296875 62.0625 
L 35.296875 11.46875 
Q 35.296875 5.375 36.625 3.859375 
Q 38.484375 1.8125 42.328125 1.8125 
L 44.625 1.8125 
L 44.625 0 
L 16.546875 0 
L 16.546875 1.8125 
L 18.890625 1.8125 
Q 23.09375 1.8125 24.859375 4.34375 
Q 25.921875 5.90625 25.921875 11.46875 
L 25.921875 62.0625 
L 17.96875 62.0625 
Q 13.328125 62.0625 11.375 61.375 
Q 8.84375 60.453125 7.03125 57.8125 
Q 5.21875 55.171875 4.890625 50.6875 
L 3.03125 50.6875 
L 3.8125 66.21875 
z
" id="TimesNewRomanPSMT-54"/>
      <path d="M 14.5 69.4375 
Q 16.546875 69.4375 17.984375 67.984375 
Q 19.4375 66.546875 19.4375 64.5 
Q 19.4375 62.453125 17.984375 60.984375 
Q 16.546875 59.515625 14.5 59.515625 
Q 12.453125 59.515625 10.984375 60.984375 
Q 9.515625 62.453125 9.515625 64.5 
Q 9.515625 66.546875 10.953125 67.984375 
Q 12.40625 69.4375 14.5 69.4375 
z
M 18.5625 46.046875 
L 18.5625 10.109375 
Q 18.5625 5.90625 19.171875 4.515625 
Q 19.78125 3.125 20.96875 2.4375 
Q 22.171875 1.765625 25.34375 1.765625 
L 25.34375 0 
L 3.609375 0 
L 3.609375 1.765625 
Q 6.890625 1.765625 8 2.390625 
Q 9.125 3.03125 9.78125 4.484375 
Q 10.453125 5.953125 10.453125 10.109375 
L 10.453125 27.34375 
Q 10.453125 34.625 10.015625 36.765625 
Q 9.671875 38.328125 8.9375 38.9375 
Q 8.203125 39.546875 6.9375 39.546875 
Q 5.5625 39.546875 3.609375 38.8125 
L 2.9375 40.578125 
L 16.40625 46.046875 
z
" id="TimesNewRomanPSMT-69"/>
      <path d="M 16.40625 36.53125 
Q 21.296875 41.40625 22.171875 42.140625 
Q 24.359375 44 26.890625 45.015625 
Q 29.4375 46.046875 31.9375 46.046875 
Q 36.140625 46.046875 39.15625 43.59375 
Q 42.1875 41.15625 43.21875 36.53125 
Q 48.25 42.390625 51.703125 44.21875 
Q 55.171875 46.046875 58.84375 46.046875 
Q 62.40625 46.046875 65.15625 44.21875 
Q 67.921875 42.390625 69.53125 38.234375 
Q 70.609375 35.40625 70.609375 29.34375 
L 70.609375 10.109375 
Q 70.609375 5.90625 71.234375 4.34375 
Q 71.734375 3.265625 73.046875 2.515625 
Q 74.359375 1.765625 77.34375 1.765625 
L 77.34375 0 
L 55.28125 0 
L 55.28125 1.765625 
L 56.203125 1.765625 
Q 59.078125 1.765625 60.6875 2.875 
Q 61.8125 3.65625 62.3125 5.375 
Q 62.5 6.203125 62.5 10.109375 
L 62.5 29.34375 
Q 62.5 34.8125 61.1875 37.0625 
Q 59.28125 40.1875 55.078125 40.1875 
Q 52.484375 40.1875 49.875 38.890625 
Q 47.265625 37.59375 43.5625 34.078125 
L 43.453125 33.546875 
L 43.5625 31.453125 
L 43.5625 10.109375 
Q 43.5625 5.515625 44.0625 4.390625 
Q 44.578125 3.265625 45.984375 2.515625 
Q 47.40625 1.765625 50.828125 1.765625 
L 50.828125 0 
L 28.21875 0 
L 28.21875 1.765625 
Q 31.9375 1.765625 33.328125 2.640625 
Q 34.71875 3.515625 35.25 5.28125 
Q 35.5 6.109375 35.5 10.109375 
L 35.5 29.34375 
Q 35.5 34.8125 33.890625 37.203125 
Q 31.734375 40.328125 27.875 40.328125 
Q 25.25 40.328125 22.65625 38.921875 
Q 18.609375 36.765625 16.40625 34.078125 
L 16.40625 10.109375 
Q 16.40625 5.71875 17.015625 4.390625 
Q 17.625 3.078125 18.8125 2.421875 
Q 20.015625 1.765625 23.6875 1.765625 
L 23.6875 0 
L 1.5625 0 
L 1.5625 1.765625 
Q 4.640625 1.765625 5.859375 2.421875 
Q 7.078125 3.078125 7.703125 4.515625 
Q 8.34375 5.953125 8.34375 10.109375 
L 8.34375 27.203125 
Q 8.34375 34.578125 7.90625 36.71875 
Q 7.5625 38.328125 6.828125 38.9375 
Q 6.109375 39.546875 4.828125 39.546875 
Q 3.46875 39.546875 1.5625 38.8125 
L 0.828125 40.578125 
L 14.3125 46.046875 
L 16.40625 46.046875 
z
" id="TimesNewRomanPSMT-6d"/>
      <path d="M 10.640625 27.875 
Q 10.59375 17.921875 15.484375 12.25 
Q 20.359375 6.59375 26.953125 6.59375 
Q 31.34375 6.59375 34.59375 9 
Q 37.84375 11.421875 40.046875 17.28125 
L 41.546875 16.3125 
Q 40.53125 9.625 35.59375 4.125 
Q 30.671875 -1.375 23.25 -1.375 
Q 15.1875 -1.375 9.453125 4.90625 
Q 3.71875 11.1875 3.71875 21.78125 
Q 3.71875 33.25 9.59375 39.671875 
Q 15.484375 46.09375 24.359375 46.09375 
Q 31.890625 46.09375 36.71875 41.140625 
Q 41.546875 36.1875 41.546875 27.875 
z
M 10.640625 30.71875 
L 31.34375 30.71875 
Q 31.109375 35.015625 30.328125 36.765625 
Q 29.109375 39.5 26.6875 41.0625 
Q 24.265625 42.625 21.625 42.625 
Q 17.578125 42.625 14.375 39.46875 
Q 11.1875 36.328125 10.640625 30.71875 
z
" id="TimesNewRomanPSMT-65"/>
      <path id="TimesNewRomanPSMT-20"/>
      <path d="M 31.0625 -19.578125 
L 31.0625 -21.390625 
Q 23.6875 -17.671875 18.75 -12.703125 
Q 11.71875 -5.609375 7.90625 4 
Q 4.109375 13.625 4.109375 23.96875 
Q 4.109375 39.109375 11.578125 51.578125 
Q 19.046875 64.0625 31.0625 69.4375 
L 31.0625 67.390625 
Q 25.046875 64.0625 21.1875 58.296875 
Q 17.328125 52.546875 15.421875 43.703125 
Q 13.53125 34.859375 13.53125 25.25 
Q 13.53125 14.796875 15.140625 6.25 
Q 16.40625 -0.484375 18.203125 -4.5625 
Q 20.015625 -8.640625 23.0625 -12.390625 
Q 26.125 -16.15625 31.0625 -19.578125 
z
" id="TimesNewRomanPSMT-28"/>
      <path d="M 32.03125 46.046875 
L 32.03125 30.8125 
L 30.421875 30.8125 
Q 28.5625 37.984375 25.65625 40.578125 
Q 22.75 43.171875 18.265625 43.171875 
Q 14.84375 43.171875 12.734375 41.359375 
Q 10.640625 39.546875 10.640625 37.359375 
Q 10.640625 34.625 12.203125 32.671875 
Q 13.71875 30.671875 18.359375 28.421875 
L 25.484375 24.953125 
Q 35.40625 20.125 35.40625 12.203125 
Q 35.40625 6.109375 30.78125 2.359375 
Q 26.171875 -1.375 20.453125 -1.375 
Q 16.359375 -1.375 11.078125 0.09375 
Q 9.46875 0.59375 8.453125 0.59375 
Q 7.328125 0.59375 6.6875 -0.6875 
L 5.078125 -0.6875 
L 5.078125 15.28125 
L 6.6875 15.28125 
Q 8.0625 8.453125 11.90625 4.984375 
Q 15.765625 1.515625 20.5625 1.515625 
Q 23.921875 1.515625 26.046875 3.484375 
Q 28.171875 5.46875 28.171875 8.25 
Q 28.171875 11.625 25.796875 13.921875 
Q 23.4375 16.21875 16.359375 19.734375 
Q 9.28125 23.25 7.078125 26.078125 
Q 4.890625 28.859375 4.890625 33.109375 
Q 4.890625 38.625 8.671875 42.328125 
Q 12.453125 46.046875 18.453125 46.046875 
Q 21.09375 46.046875 24.859375 44.921875 
Q 27.34375 44.1875 28.171875 44.1875 
Q 28.953125 44.1875 29.390625 44.53125 
Q 29.828125 44.875 30.421875 46.046875 
z
" id="TimesNewRomanPSMT-73"/>
      <path d="M 2.25 67.390625 
L 2.25 69.4375 
Q 9.671875 65.765625 14.59375 60.796875 
Q 21.578125 53.65625 25.390625 44.0625 
Q 29.203125 34.46875 29.203125 24.078125 
Q 29.203125 8.9375 21.75 -3.53125 
Q 14.3125 -16.015625 2.25 -21.390625 
L 2.25 -19.578125 
Q 8.25 -16.21875 12.125 -10.46875 
Q 16.015625 -4.734375 17.890625 4.125 
Q 19.78125 12.984375 19.78125 22.609375 
Q 19.78125 33.015625 18.171875 41.609375 
Q 16.9375 48.34375 15.109375 52.390625 
Q 13.28125 56.453125 10.25 60.203125 
Q 7.234375 63.96875 2.25 67.390625 
z
" id="TimesNewRomanPSMT-29"/>
     </defs>
     <g transform="translate(300.653906 409.09375)scale(0.15 -0.15)">
      <use xlink:href="#TimesNewRomanPSMT-54"/>
      <use x="61.037109" xlink:href="#TimesNewRomanPSMT-69"/>
      <use x="88.820312" xlink:href="#TimesNewRomanPSMT-6d"/>
      <use x="166.603516" xlink:href="#TimesNewRomanPSMT-65"/>
      <use x="210.988281" xlink:href="#TimesNewRomanPSMT-20"/>
      <use x="235.988281" xlink:href="#TimesNewRomanPSMT-28"/>
      <use x="269.289062" xlink:href="#TimesNewRomanPSMT-6d"/>
      <use x="347.072266" xlink:href="#TimesNewRomanPSMT-73"/>
      <use x="385.988281" xlink:href="#TimesNewRomanPSMT-29"/>
     </g>
    </g>
   </g>
   <g id="matplotlib.axis_2">
    <g id="ytick_1">
     <g id="line2d_13">
      <path clip-path="url(#pe1e6bf65eb)" d="M 81 363.174545 
L 583.2 363.174545 
" style="fill:none;stroke:#ffdab9;stroke-linecap:square;stroke-width:0.8;"/>
     </g>
     <g id="line2d_14">
      <defs>
       <path d="M 0 0 
L -3.5 0 
" id="m336e0483aa" style="stroke:#000000;stroke-width:0.8;"/>
      </defs>
      <g>
       <use style="stroke:#000000;stroke-width:0.8;" x="81" xlink:href="#m336e0483aa" y="363.174545"/>
      </g>
     </g>
     <g id="text_8">
      <!-- 0 -->
      <g transform="translate(67.6375 366.973764)scale(0.1 -0.1)">
       <use xlink:href="#DejaVuSans-30"/>
      </g>
     </g>
    </g>
    <g id="ytick_2">
     <g id="line2d_15">
      <path clip-path="url(#pe1e6bf65eb)" d="M 81 290.746173 
L 583.2 290.746173 
" style="fill:none;stroke:#ffdab9;stroke-linecap:square;stroke-width:0.8;"/>
     </g>
     <g id="line2d_16">
      <g>
       <use style="stroke:#000000;stroke-width:0.8;" x="81" xlink:href="#m336e0483aa" y="290.746173"/>
      </g>
     </g>
     <g id="text_9">
      <!-- 20 -->
      <g transform="translate(61.275 294.545391)scale(0.1 -0.1)">
       <use xlink:href="#DejaVuSans-32"/>
       <use x="63.623047" xlink:href="#DejaVuSans-30"/>
      </g>
     </g>
    </g>
    <g id="ytick_3">
     <g id="line2d_17">
      <path clip-path="url(#pe1e6bf65eb)" d="M 81 218.3178 
L 583.2 218.3178 
" style="fill:none;stroke:#ffdab9;stroke-linecap:square;stroke-width:0.8;"/>
     </g>
     <g id="line2d_18">
      <g>
       <use style="stroke:#000000;stroke-width:0.8;" x="81" xlink:href="#m336e0483aa" y="218.3178"/>
      </g>
     </g>
     <g id="text_10">
      <!-- 40 -->
      <g transform="translate(61.275 222.117019)scale(0.1 -0.1)">
       <use xlink:href="#DejaVuSans-34"/>
       <use x="63.623047" xlink:href="#DejaVuSans-30"/>
      </g>
     </g>
    </g>
    <g id="ytick_4">
     <g id="line2d_19">
      <path clip-path="url(#pe1e6bf65eb)" d="M 81 145.889427 
L 583.2 145.889427 
" style="fill:none;stroke:#ffdab9;stroke-linecap:square;stroke-width:0.8;"/>
     </g>
     <g id="line2d_20">
      <g>
       <use style="stroke:#000000;stroke-width:0.8;" x="81" xlink:href="#m336e0483aa" y="145.889427"/>
      </g>
     </g>
     <g id="text_11">
      <!-- 60 -->
      <g transform="translate(61.275 149.688646)scale(0.1 -0.1)">
       <use xlink:href="#DejaVuSans-36"/>
       <use x="63.623047" xlink:href="#DejaVuSans-30"/>
      </g>
     </g>
    </g>
    <g id="ytick_5">
     <g id="line2d_21">
      <path clip-path="url(#pe1e6bf65eb)" d="M 81 73.461054 
L 583.2 73.461054 
" style="fill:none;stroke:#ffdab9;stroke-linecap:square;stroke-width:0.8;"/>
     </g>
     <g id="line2d_22">
      <g>
       <use style="stroke:#000000;stroke-width:0.8;" x="81" xlink:href="#m336e0483aa" y="73.461054"/>
      </g>
     </g>
     <g id="text_12">
      <!-- 80 -->
      <g transform="translate(61.275 77.260273)scale(0.1 -0.1)">
       <use xlink:href="#DejaVuSans-38"/>
       <use x="63.623047" xlink:href="#DejaVuSans-30"/>
      </g>
     </g>
    </g>
    <g id="text_13">
     <!-- % Activation -->
     <defs>
      <path d="M 67.96875 67.71875 
L 19.734375 -2.734375 
L 15.375 -2.734375 
L 63.625 67.71875 
z
M 17.78125 67.71875 
Q 24.359375 67.71875 28 62.25 
Q 31.640625 56.78125 31.640625 49.703125 
Q 31.640625 41.21875 27.53125 36.578125 
Q 23.4375 31.9375 17.671875 31.9375 
Q 13.8125 31.9375 10.59375 34.0625 
Q 7.375 36.1875 5.4375 40.375 
Q 3.515625 44.578125 3.515625 49.703125 
Q 3.515625 54.828125 5.46875 59.15625 
Q 7.421875 63.484375 10.8125 65.59375 
Q 14.203125 67.71875 17.78125 67.71875 
z
M 17.625 64.984375 
Q 15.140625 64.984375 13.203125 62.046875 
Q 11.28125 59.125 11.28125 49.75 
Q 11.28125 42.96875 12.359375 39.40625 
Q 13.1875 36.71875 14.9375 35.25 
Q 15.96875 34.375 17.484375 34.375 
Q 19.828125 34.375 21.484375 36.921875 
Q 23.921875 40.671875 23.921875 49.46875 
Q 23.921875 58.734375 21.53125 62.5 
Q 19.96875 64.984375 17.625 64.984375 
z
M 65.71875 32.859375 
Q 69.1875 32.859375 72.625 30.65625 
Q 76.078125 28.46875 77.953125 24.265625 
Q 79.828125 20.0625 79.828125 15.046875 
Q 79.828125 6.390625 75.671875 1.828125 
Q 71.53125 -2.734375 65.875 -2.734375 
Q 62.3125 -2.734375 58.953125 -0.53125 
Q 55.609375 1.65625 53.6875 5.734375 
Q 51.765625 9.8125 51.765625 15.046875 
Q 51.765625 20.171875 53.6875 24.40625 
Q 55.609375 28.65625 58.953125 30.75 
Q 62.3125 32.859375 65.71875 32.859375 
z
M 65.765625 30.28125 
Q 63.421875 30.28125 61.71875 27.640625 
Q 59.515625 24.21875 59.515625 14.703125 
Q 59.515625 5.953125 61.765625 2.484375 
Q 63.421875 0 65.765625 0 
Q 68.015625 0 69.78125 2.6875 
Q 72.125 6.25 72.125 14.9375 
Q 72.125 24.125 69.78125 27.78125 
Q 68.171875 30.28125 65.765625 30.28125 
z
" id="TimesNewRomanPSMT-25"/>
      <path d="M 45.75 22.171875 
L 20.125 22.171875 
L 15.625 11.71875 
Q 13.96875 7.859375 13.96875 5.953125 
Q 13.96875 4.4375 15.40625 3.296875 
Q 16.84375 2.15625 21.625 1.8125 
L 21.625 0 
L 0.78125 0 
L 0.78125 1.8125 
Q 4.9375 2.546875 6.15625 3.71875 
Q 8.640625 6.0625 11.671875 13.234375 
L 34.96875 67.71875 
L 36.671875 67.71875 
L 59.71875 12.640625 
Q 62.5 6 64.765625 4.015625 
Q 67.046875 2.046875 71.09375 1.8125 
L 71.09375 0 
L 44.96875 0 
L 44.96875 1.8125 
Q 48.921875 2 50.3125 3.125 
Q 51.703125 4.25 51.703125 5.859375 
Q 51.703125 8.015625 49.75 12.640625 
z
M 44.390625 25.78125 
L 33.15625 52.546875 
L 21.625 25.78125 
z
" id="TimesNewRomanPSMT-41"/>
      <path d="M 41.109375 17 
Q 39.3125 8.15625 34.03125 3.390625 
Q 28.765625 -1.375 22.359375 -1.375 
Q 14.75 -1.375 9.078125 5.015625 
Q 3.421875 11.421875 3.421875 22.3125 
Q 3.421875 32.859375 9.6875 39.453125 
Q 15.96875 46.046875 24.75 46.046875 
Q 31.34375 46.046875 35.59375 42.546875 
Q 39.84375 39.0625 39.84375 35.296875 
Q 39.84375 33.453125 38.640625 32.296875 
Q 37.453125 31.15625 35.296875 31.15625 
Q 32.421875 31.15625 30.953125 33.015625 
Q 30.125 34.03125 29.859375 36.90625 
Q 29.59375 39.796875 27.875 41.3125 
Q 26.171875 42.78125 23.140625 42.78125 
Q 18.265625 42.78125 15.28125 39.15625 
Q 11.328125 34.375 11.328125 26.515625 
Q 11.328125 18.5 15.25 12.375 
Q 19.1875 6.25 25.875 6.25 
Q 30.671875 6.25 34.46875 9.515625 
Q 37.15625 11.765625 39.703125 17.671875 
z
" id="TimesNewRomanPSMT-63"/>
      <path d="M 16.109375 59.421875 
L 16.109375 44.734375 
L 26.5625 44.734375 
L 26.5625 41.3125 
L 16.109375 41.3125 
L 16.109375 12.3125 
Q 16.109375 7.953125 17.359375 6.4375 
Q 18.609375 4.9375 20.5625 4.9375 
Q 22.171875 4.9375 23.6875 5.9375 
Q 25.203125 6.9375 26.03125 8.890625 
L 27.9375 8.890625 
Q 26.21875 4.109375 23.09375 1.6875 
Q 19.96875 -0.734375 16.65625 -0.734375 
Q 14.40625 -0.734375 12.25 0.515625 
Q 10.109375 1.765625 9.078125 4.078125 
Q 8.0625 6.390625 8.0625 11.234375 
L 8.0625 41.3125 
L 0.984375 41.3125 
L 0.984375 42.921875 
Q 3.65625 44 6.46875 46.5625 
Q 9.28125 49.125 11.46875 52.640625 
Q 12.59375 54.5 14.59375 59.421875 
z
" id="TimesNewRomanPSMT-74"/>
      <path d="M 0.828125 44.734375 
L 21.875 44.734375 
L 21.875 42.921875 
L 20.515625 42.921875 
Q 18.609375 42.921875 17.609375 41.984375 
Q 16.609375 41.0625 16.609375 39.5 
Q 16.609375 37.796875 17.625 35.453125 
L 28.03125 10.75 
L 38.484375 36.375 
Q 39.59375 39.109375 39.59375 40.53125 
Q 39.59375 41.21875 39.203125 41.65625 
Q 38.671875 42.390625 37.84375 42.65625 
Q 37.015625 42.921875 34.46875 42.921875 
L 34.46875 44.734375 
L 49.078125 44.734375 
L 49.078125 42.921875 
Q 46.53125 42.71875 45.5625 41.890625 
Q 43.84375 40.4375 42.484375 37.015625 
L 26.609375 -1.375 
L 24.609375 -1.375 
L 8.640625 36.375 
Q 7.5625 39.015625 6.578125 40.15625 
Q 5.609375 41.3125 4.109375 42.09375 
Q 3.265625 42.53125 0.828125 42.921875 
z
" id="TimesNewRomanPSMT-76"/>
      <path d="M 28.46875 6.453125 
Q 21.578125 1.125 19.828125 0.296875 
Q 17.1875 -0.921875 14.203125 -0.921875 
Q 9.578125 -0.921875 6.5625 2.25 
Q 3.5625 5.421875 3.5625 10.59375 
Q 3.5625 13.875 5.03125 16.265625 
Q 7.03125 19.578125 11.984375 22.5 
Q 16.9375 25.4375 28.46875 29.640625 
L 28.46875 31.390625 
Q 28.46875 38.09375 26.34375 40.578125 
Q 24.21875 43.0625 20.171875 43.0625 
Q 17.09375 43.0625 15.28125 41.40625 
Q 13.421875 39.75 13.421875 37.59375 
L 13.53125 34.765625 
Q 13.53125 32.515625 12.375 31.296875 
Q 11.234375 30.078125 9.375 30.078125 
Q 7.5625 30.078125 6.421875 31.34375 
Q 5.28125 32.625 5.28125 34.8125 
Q 5.28125 39.015625 9.578125 42.53125 
Q 13.875 46.046875 21.625 46.046875 
Q 27.59375 46.046875 31.390625 44.046875 
Q 34.28125 42.53125 35.640625 39.3125 
Q 36.53125 37.203125 36.53125 30.71875 
L 36.53125 15.53125 
Q 36.53125 9.125 36.765625 7.6875 
Q 37.015625 6.25 37.578125 5.765625 
Q 38.140625 5.28125 38.875 5.28125 
Q 39.65625 5.28125 40.234375 5.609375 
Q 41.265625 6.25 44.1875 9.1875 
L 44.1875 6.453125 
Q 38.71875 -0.875 33.734375 -0.875 
Q 31.34375 -0.875 29.921875 0.78125 
Q 28.515625 2.4375 28.46875 6.453125 
z
M 28.46875 9.625 
L 28.46875 26.65625 
Q 21.09375 23.734375 18.953125 22.515625 
Q 15.09375 20.359375 13.421875 18.015625 
Q 11.765625 15.671875 11.765625 12.890625 
Q 11.765625 9.375 13.859375 7.046875 
Q 15.96875 4.734375 18.703125 4.734375 
Q 22.40625 4.734375 28.46875 9.625 
z
" id="TimesNewRomanPSMT-61"/>
      <path d="M 25 46.046875 
Q 35.15625 46.046875 41.3125 38.328125 
Q 46.53125 31.734375 46.53125 23.1875 
Q 46.53125 17.1875 43.640625 11.03125 
Q 40.765625 4.890625 35.71875 1.75 
Q 30.671875 -1.375 24.46875 -1.375 
Q 14.359375 -1.375 8.40625 6.6875 
Q 3.375 13.484375 3.375 21.921875 
Q 3.375 28.078125 6.421875 34.15625 
Q 9.46875 40.234375 14.453125 43.140625 
Q 19.4375 46.046875 25 46.046875 
z
M 23.484375 42.875 
Q 20.90625 42.875 18.28125 41.328125 
Q 15.671875 39.796875 14.0625 35.9375 
Q 12.453125 32.078125 12.453125 26.03125 
Q 12.453125 16.265625 16.328125 9.171875 
Q 20.21875 2.09375 26.5625 2.09375 
Q 31.296875 2.09375 34.375 6 
Q 37.453125 9.90625 37.453125 19.4375 
Q 37.453125 31.34375 32.328125 38.1875 
Q 28.859375 42.875 23.484375 42.875 
z
" id="TimesNewRomanPSMT-6f"/>
      <path d="M 16.15625 36.578125 
Q 24.03125 46.046875 31.15625 46.046875 
Q 34.8125 46.046875 37.453125 44.21875 
Q 40.09375 42.390625 41.65625 38.1875 
Q 42.71875 35.25 42.71875 29.203125 
L 42.71875 10.109375 
Q 42.71875 5.859375 43.40625 4.34375 
Q 43.953125 3.125 45.140625 2.4375 
Q 46.34375 1.765625 49.5625 1.765625 
L 49.5625 0 
L 27.4375 0 
L 27.4375 1.765625 
L 28.375 1.765625 
Q 31.5 1.765625 32.734375 2.703125 
Q 33.984375 3.65625 34.46875 5.515625 
Q 34.671875 6.25 34.671875 10.109375 
L 34.671875 28.421875 
Q 34.671875 34.515625 33.078125 37.28125 
Q 31.5 40.046875 27.734375 40.046875 
Q 21.921875 40.046875 16.15625 33.6875 
L 16.15625 10.109375 
Q 16.15625 5.5625 16.703125 4.5 
Q 17.390625 3.078125 18.578125 2.421875 
Q 19.78125 1.765625 23.4375 1.765625 
L 23.4375 0 
L 1.3125 0 
L 1.3125 1.765625 
L 2.296875 1.765625 
Q 5.71875 1.765625 6.90625 3.484375 
Q 8.109375 5.21875 8.109375 10.109375 
L 8.109375 26.703125 
Q 8.109375 34.765625 7.734375 36.515625 
Q 7.375 38.28125 6.609375 38.90625 
Q 5.859375 39.546875 4.59375 39.546875 
Q 3.21875 39.546875 1.3125 38.8125 
L 0.59375 40.578125 
L 14.0625 46.046875 
L 16.15625 46.046875 
z
" id="TimesNewRomanPSMT-6e"/>
     </defs>
     <g transform="translate(54.066406 254.695781)rotate(-90)scale(0.15 -0.15)">
      <use xlink:href="#TimesNewRomanPSMT-25"/>
      <use x="83.300781" xlink:href="#TimesNewRomanPSMT-20"/>
      <use x="108.222656" xlink:href="#TimesNewRomanPSMT-41"/>
      <use x="180.439453" xlink:href="#TimesNewRomanPSMT-63"/>
      <use x="224.824219" xlink:href="#TimesNewRomanPSMT-74"/>
      <use x="252.607422" xlink:href="#TimesNewRomanPSMT-69"/>
      <use x="280.390625" xlink:href="#TimesNewRomanPSMT-76"/>
      <use x="330.390625" xlink:href="#TimesNewRomanPSMT-61"/>
      <use x="374.775391" xlink:href="#TimesNewRomanPSMT-74"/>
      <use x="402.558594" xlink:href="#TimesNewRomanPSMT-69"/>
      <use x="430.341797" xlink:href="#TimesNewRomanPSMT-6f"/>
      <use x="480.341797" xlink:href="#TimesNewRomanPSMT-6e"/>
     </g>
    </g>
   </g>
   <g id="line2d_23">
    <path clip-path="url(#pe1e6bf65eb)" d="M 103.827273 363.174545 
L 114.327818 360.667063 
L 124.828364 358.405418 
L 136.242 356.184653 
L 149.025273 353.928804 
L 165.004364 351.343785 
L 193.310182 347.036801 
L 240.334364 339.860833 
L 264.531273 335.879081 
L 297.402545 330.457429 
L 309.729273 328.674245 
L 319.773273 327.437449 
L 328.904182 326.52984 
L 337.578545 325.885409 
L 346.252909 325.463907 
L 354.927273 325.260618 
L 364.514727 325.266806 
L 375.015273 325.504582 
L 387.798545 326.028324 
L 407.886545 327.11076 
L 438.931636 328.760029 
L 459.019636 329.591829 
L 479.564182 330.218729 
L 502.391455 330.687134 
L 529.327636 331.010005 
L 560.372727 331.18357 
L 560.372727 331.18357 
" style="fill:none;stroke:#808080;stroke-dasharray:9.25,4;stroke-dashoffset:0;stroke-width:2.5;"/>
    <defs>
     <path d="M 0 -3.5 
L -3.5 3.5 
L 3.5 3.5 
z
" id="m5707ce4663" style="stroke:#808080;stroke-linejoin:miter;"/>
    </defs>
    <g clip-path="url(#pe1e6bf65eb)">
     <use style="fill:#808080;stroke:#808080;stroke-linejoin:miter;" x="103.827273" xlink:href="#m5707ce4663" y="363.174545"/>
     <use style="fill:#808080;stroke:#808080;stroke-linejoin:miter;" x="131.22" xlink:href="#m5707ce4663" y="357.134373"/>
     <use style="fill:#808080;stroke:#808080;stroke-linejoin:miter;" x="158.612727" xlink:href="#m5707ce4663" y="352.354318"/>
     <use style="fill:#808080;stroke:#808080;stroke-linejoin:miter;" x="186.005455" xlink:href="#m5707ce4663" y="348.137031"/>
     <use style="fill:#808080;stroke:#808080;stroke-linejoin:miter;" x="213.398182" xlink:href="#m5707ce4663" y="344.025849"/>
     <use style="fill:#808080;stroke:#808080;stroke-linejoin:miter;" x="240.790909" xlink:href="#m5707ce4663" y="339.787822"/>
     <use style="fill:#808080;stroke:#808080;stroke-linejoin:miter;" x="268.183636" xlink:href="#m5707ce4663" y="335.263665"/>
     <use style="fill:#808080;stroke:#808080;stroke-linejoin:miter;" x="295.576364" xlink:href="#m5707ce4663" y="330.74036"/>
     <use style="fill:#808080;stroke:#808080;stroke-linejoin:miter;" x="322.969091" xlink:href="#m5707ce4663" y="327.094445"/>
     <use style="fill:#808080;stroke:#808080;stroke-linejoin:miter;" x="350.361818" xlink:href="#m5707ce4663" y="325.34126"/>
     <use style="fill:#808080;stroke:#808080;stroke-linejoin:miter;" x="377.754545" xlink:href="#m5707ce4663" y="325.598684"/>
     <use style="fill:#808080;stroke:#808080;stroke-linejoin:miter;" x="405.147273" xlink:href="#m5707ce4663" y="326.955747"/>
     <use style="fill:#808080;stroke:#808080;stroke-linejoin:miter;" x="432.54" xlink:href="#m5707ce4663" y="328.450388"/>
     <use style="fill:#808080;stroke:#808080;stroke-linejoin:miter;" x="459.932727" xlink:href="#m5707ce4663" y="329.624379"/>
     <use style="fill:#808080;stroke:#808080;stroke-linejoin:miter;" x="487.325455" xlink:href="#m5707ce4663" y="330.402227"/>
     <use style="fill:#808080;stroke:#808080;stroke-linejoin:miter;" x="514.718182" xlink:href="#m5707ce4663" y="330.860515"/>
     <use style="fill:#808080;stroke:#808080;stroke-linejoin:miter;" x="542.110909" xlink:href="#m5707ce4663" y="331.101209"/>
    </g>
   </g>
   <g id="line2d_24">
    <path clip-path="url(#pe1e6bf65eb)" d="M 103.827273 363.174545 
L 127.111091 363.065306 
L 137.611636 362.782756 
L 146.286 362.331598 
L 154.047273 361.707911 
L 160.895455 360.946378 
L 167.287091 360.018232 
L 172.765636 359.009949 
L 177.331091 357.959954 
L 180.983455 356.910068 
L 184.179273 355.746898 
L 186.462 354.703489 
L 188.744727 353.410586 
L 190.570909 352.151968 
L 192.397091 350.671547 
L 194.679818 348.521003 
L 197.419091 345.593399 
L 201.071455 341.317418 
L 205.636909 335.604038 
L 210.658909 328.97013 
L 216.137455 321.37317 
L 222.072545 312.754767 
L 228.464182 303.058715 
L 235.312364 292.243989 
L 243.073636 279.5387 
L 252.204545 264.1349 
L 268.640182 235.852533 
L 280.053818 216.42823 
L 288.271636 202.878487 
L 295.119818 192.013786 
L 301.054909 182.99128 
L 306.533455 175.038634 
L 312.012 167.486525 
L 317.034 160.943393 
L 322.056 154.783787 
L 326.621455 149.529241 
L 331.186909 144.610724 
L 335.752364 140.031729 
L 340.317818 135.792137 
L 344.426727 132.26386 
L 348.535636 129.002973 
L 352.644545 126.002949 
L 356.753455 123.255621 
L 360.862364 120.751458 
L 365.427818 118.241294 
L 369.993273 116.002361 
L 374.558727 114.017917 
L 379.124182 112.27067 
L 384.146182 110.601789 
L 389.168182 109.175618 
L 394.190182 107.96953 
L 399.668727 106.879261 
L 405.603818 105.933308 
L 411.995455 105.152373 
L 418.843636 104.549124 
L 426.148364 104.127492 
L 434.366182 103.874601 
L 443.953636 103.808912 
L 455.367273 103.962322 
L 470.433273 104.405957 
L 496.912909 105.456924 
L 531.153818 106.754577 
L 556.263818 107.47646 
L 560.372727 107.573712 
L 560.372727 107.573712 
" style="fill:none;stroke:#000000;stroke-dasharray:9.25,4;stroke-dashoffset:0;stroke-width:2.5;"/>
    <defs>
     <path d="M 0 3 
C 0.795609 3 1.55874 2.683901 2.12132 2.12132 
C 2.683901 1.55874 3 0.795609 3 0 
C 3 -0.795609 2.683901 -1.55874 2.12132 -2.12132 
C 1.55874 -2.683901 0.795609 -3 0 -3 
C -0.795609 -3 -1.55874 -2.683901 -2.12132 -2.12132 
C -2.683901 -1.55874 -3 -0.795609 -3 0 
C -3 0.795609 -2.683901 1.55874 -2.12132 2.12132 
C -1.55874 2.683901 -0.795609 3 0 3 
z
" id="m9f8b726e17" style="stroke:#000000;"/>
    </defs>
    <g clip-path="url(#pe1e6bf65eb)">
     <use style="stroke:#000000;" x="103.827273" xlink:href="#m9f8b726e17" y="363.174545"/>
     <use style="stroke:#000000;" x="126.654545" xlink:href="#m9f8b726e17" y="363.072569"/>
     <use style="stroke:#000000;" x="149.481818" xlink:href="#m9f8b726e17" y="362.102671"/>
     <use style="stroke:#000000;" x="172.309091" xlink:href="#m9f8b726e17" y="359.103117"/>
     <use style="stroke:#000000;" x="195.136364" xlink:href="#m9f8b726e17" y="348.055856"/>
     <use style="stroke:#000000;" x="217.963636" xlink:href="#m9f8b726e17" y="318.762941"/>
     <use style="stroke:#000000;" x="240.790909" xlink:href="#m9f8b726e17" y="283.318911"/>
     <use style="stroke:#000000;" x="263.618182" xlink:href="#m9f8b726e17" y="244.507988"/>
     <use style="stroke:#000000;" x="286.445455" xlink:href="#m9f8b726e17" y="205.846569"/>
     <use style="stroke:#000000;" x="309.272727" xlink:href="#m9f8b726e17" y="171.210327"/>
     <use style="stroke:#000000;" x="332.1" xlink:href="#m9f8b726e17" y="143.667721"/>
     <use style="stroke:#000000;" x="354.927273" xlink:href="#m9f8b726e17" y="124.446039"/>
     <use style="stroke:#000000;" x="377.754545" xlink:href="#m9f8b726e17" y="112.770977"/>
     <use style="stroke:#000000;" x="400.581818" xlink:href="#m9f8b726e17" y="106.718585"/>
     <use style="stroke:#000000;" x="423.409091" xlink:href="#m9f8b726e17" y="104.261521"/>
     <use style="stroke:#000000;" x="446.236364" xlink:href="#m9f8b726e17" y="103.822295"/>
     <use style="stroke:#000000;" x="469.063636" xlink:href="#m9f8b726e17" y="104.358058"/>
     <use style="stroke:#000000;" x="491.890909" xlink:href="#m9f8b726e17" y="105.249766"/>
     <use style="stroke:#000000;" x="514.718182" xlink:href="#m9f8b726e17" y="106.167692"/>
     <use style="stroke:#000000;" x="537.545455" xlink:href="#m9f8b726e17" y="106.959209"/>
     <use style="stroke:#000000;" x="560.372727" xlink:href="#m9f8b726e17" y="107.573712"/>
    </g>
   </g>
   <g id="line2d_25">
    <path clip-path="url(#pe1e6bf65eb)" d="M 103.827273 363.174545 
L 107.479636 363.158276 
L 138.068182 363.048108 
L 146.286 362.795929 
L 151.308 362.439478 
L 155.416909 361.922866 
L 158.612727 361.292801 
L 161.352 360.514844 
L 163.634727 359.631828 
L 165.460909 358.721243 
L 167.287091 357.577283 
L 169.113273 356.137465 
L 170.482909 354.815933 
L 171.852545 353.240856 
L 173.222182 351.361527 
L 174.591818 349.114685 
L 175.961455 346.42798 
L 177.331091 343.210314 
L 178.700727 339.356834 
L 180.070364 334.745509 
L 181.44 329.238567 
L 182.809636 322.688261 
L 184.179273 314.948045 
L 185.548909 305.892842 
L 186.918545 295.452877 
L 188.744727 279.43596 
L 191.027455 256.762515 
L 195.136364 214.81823 
L 196.962545 198.417516 
L 198.788727 184.143465 
L 200.614909 171.92438 
L 202.441091 161.496655 
L 204.267273 152.565461 
L 206.093455 144.866638 
L 207.919636 138.181638 
L 209.745818 132.335526 
L 211.572 127.186912 
L 213.398182 122.623425 
L 215.224364 118.554648 
L 217.507091 114.054182 
L 219.789818 110.099131 
L 222.072545 106.599491 
L 224.355273 103.484002 
L 226.638 100.695163 
L 229.377273 97.715587 
L 232.116545 95.075192 
L 234.855818 92.722386 
L 238.051636 90.285587 
L 241.247455 88.130277 
L 244.899818 85.957254 
L 248.552182 84.045435 
L 252.661091 82.156725 
L 256.77 80.501694 
L 261.335455 78.892638 
L 266.357455 77.356642 
L 271.836 75.913483 
L 277.771091 74.576431 
L 284.619273 73.273642 
L 291.924 72.114834 
L 300.141818 71.041157 
L 309.272727 70.07724 
L 319.773273 69.204738 
L 331.643455 68.45535 
L 345.339818 67.828526 
L 361.318909 67.334013 
L 380.493818 66.974511 
L 405.147273 66.748497 
L 440.757818 66.665556 
L 523.392545 66.766845 
L 560.372727 66.80855 
L 560.372727 66.80855 
" style="fill:none;stroke:#bc8f8f;stroke-dasharray:9.25,4;stroke-dashoffset:0;stroke-width:2.5;"/>
    <defs>
     <path d="M 0 -4.5 
L -1.010313 -1.390576 
L -4.279754 -1.390576 
L -1.634721 0.531153 
L -2.645034 3.640576 
L -0 1.718847 
L 2.645034 3.640576 
L 1.634721 0.531153 
L 4.279754 -1.390576 
L 1.010313 -1.390576 
z
" id="ma8f03e91b4" style="stroke:#bc8f8f;stroke-linejoin:bevel;"/>
    </defs>
    <g clip-path="url(#pe1e6bf65eb)">
     <use style="fill:#bc8f8f;stroke:#bc8f8f;stroke-linejoin:bevel;" x="103.827273" xlink:href="#ma8f03e91b4" y="363.174545"/>
     <use style="fill:#bc8f8f;stroke:#bc8f8f;stroke-linejoin:bevel;" x="126.654545" xlink:href="#ma8f03e91b4" y="363.141306"/>
     <use style="fill:#bc8f8f;stroke:#bc8f8f;stroke-linejoin:bevel;" x="149.481818" xlink:href="#ma8f03e91b4" y="362.596153"/>
     <use style="fill:#bc8f8f;stroke:#bc8f8f;stroke-linejoin:bevel;" x="172.309091" xlink:href="#ma8f03e91b4" y="352.651059"/>
     <use style="fill:#bc8f8f;stroke:#bc8f8f;stroke-linejoin:bevel;" x="195.136364" xlink:href="#ma8f03e91b4" y="214.81823"/>
     <use style="fill:#bc8f8f;stroke:#bc8f8f;stroke-linejoin:bevel;" x="217.963636" xlink:href="#ma8f03e91b4" y="113.222731"/>
     <use style="fill:#bc8f8f;stroke:#bc8f8f;stroke-linejoin:bevel;" x="240.790909" xlink:href="#ma8f03e91b4" y="88.422665"/>
     <use style="fill:#bc8f8f;stroke:#bc8f8f;stroke-linejoin:bevel;" x="263.618182" xlink:href="#ma8f03e91b4" y="78.166627"/>
     <use style="fill:#bc8f8f;stroke:#bc8f8f;stroke-linejoin:bevel;" x="286.445455" xlink:href="#ma8f03e91b4" y="72.963485"/>
     <use style="fill:#bc8f8f;stroke:#bc8f8f;stroke-linejoin:bevel;" x="309.272727" xlink:href="#ma8f03e91b4" y="70.07724"/>
     <use style="fill:#bc8f8f;stroke:#bc8f8f;stroke-linejoin:bevel;" x="332.1" xlink:href="#ma8f03e91b4" y="68.430749"/>
     <use style="fill:#bc8f8f;stroke:#bc8f8f;stroke-linejoin:bevel;" x="354.927273" xlink:href="#ma8f03e91b4" y="67.506256"/>
     <use style="fill:#bc8f8f;stroke:#bc8f8f;stroke-linejoin:bevel;" x="377.754545" xlink:href="#ma8f03e91b4" y="67.01381"/>
     <use style="fill:#bc8f8f;stroke:#bc8f8f;stroke-linejoin:bevel;" x="400.581818" xlink:href="#ma8f03e91b4" y="66.776063"/>
     <use style="fill:#bc8f8f;stroke:#bc8f8f;stroke-linejoin:bevel;" x="423.409091" xlink:href="#ma8f03e91b4" y="66.682668"/>
     <use style="fill:#bc8f8f;stroke:#bc8f8f;stroke-linejoin:bevel;" x="446.236364" xlink:href="#ma8f03e91b4" y="66.66607"/>
     <use style="fill:#bc8f8f;stroke:#bc8f8f;stroke-linejoin:bevel;" x="469.063636" xlink:href="#ma8f03e91b4" y="66.686122"/>
     <use style="fill:#bc8f8f;stroke:#bc8f8f;stroke-linejoin:bevel;" x="491.890909" xlink:href="#ma8f03e91b4" y="66.719748"/>
     <use style="fill:#bc8f8f;stroke:#bc8f8f;stroke-linejoin:bevel;" x="514.718182" xlink:href="#ma8f03e91b4" y="66.754624"/>
     <use style="fill:#bc8f8f;stroke:#bc8f8f;stroke-linejoin:bevel;" x="537.545455" xlink:href="#ma8f03e91b4" y="66.784906"/>
     <use style="fill:#bc8f8f;stroke:#bc8f8f;stroke-linejoin:bevel;" x="560.372727" xlink:href="#ma8f03e91b4" y="66.80855"/>
    </g>
   </g>
   <g id="patch_3">
    <path d="M 81 378 
L 81 51.84 
" style="fill:none;stroke:#ffdab9;stroke-linecap:square;stroke-linejoin:miter;stroke-width:0.8;"/>
   </g>
   <g id="patch_4">
    <path d="M 583.2 378 
L 583.2 51.84 
" style="fill:none;stroke:#ffdab9;stroke-linecap:square;stroke-linejoin:miter;stroke-width:0.8;"/>
   </g>
   <g id="patch_5">
    <path d="M 81 378 
L 583.2 378 
" style="fill:none;stroke:#ffdab9;stroke-linecap:square;stroke-linejoin:miter;stroke-width:0.8;"/>
   </g>
   <g id="patch_6">
    <path d="M 81 51.84 
L 583.2 51.84 
" style="fill:none;stroke:#ffdab9;stroke-linecap:square;stroke-linejoin:miter;stroke-width:0.8;"/>
   </g>
   <g id="legend_1">
    <g id="patch_7">
     <path d="M 119.375469 48.651981 
L 544.824531 48.651981 
Q 547.024531 48.651981 547.024531 46.451981 
L 547.024531 0.8312 
Q 547.024531 -1.3688 544.824531 -1.3688 
L 119.375469 -1.3688 
Q 117.175469 -1.3688 117.175469 0.8312 
L 117.175469 46.451981 
Q 117.175469 48.651981 119.375469 48.651981 
z
" style="fill:#fffaf0;opacity:0.8;stroke:#cccccc;stroke-linejoin:miter;"/>
    </g>
    <g id="line2d_26">
     <path d="M 121.575469 6.8812 
L 143.575469 6.8812 
" style="fill:none;stroke:#808080;stroke-dasharray:9.25,4;stroke-dashoffset:0;stroke-width:2.5;"/>
    </g>
    <g id="line2d_27">
     <g>
      <use style="fill:#808080;stroke:#808080;stroke-linejoin:miter;" x="132.575469" xlink:href="#m5707ce4663" y="6.8812"/>
     </g>
    </g>
    <g id="text_14">
     <!-- MKKKP {'concentration of chemical', 'activation of mapkkk activity'} -->
     <defs>
      <path d="M 40.921875 0 
L 15.328125 55.71875 
L 15.328125 11.46875 
Q 15.328125 5.375 16.65625 3.859375 
Q 18.453125 1.8125 22.359375 1.8125 
L 24.703125 1.8125 
L 24.703125 0 
L 1.65625 0 
L 1.65625 1.8125 
L 4 1.8125 
Q 8.203125 1.8125 9.96875 4.34375 
Q 11.03125 5.90625 11.03125 11.46875 
L 11.03125 54.734375 
Q 11.03125 59.125 10.0625 61.078125 
Q 9.375 62.5 7.546875 63.453125 
Q 5.71875 64.40625 1.65625 64.40625 
L 1.65625 66.21875 
L 20.40625 66.21875 
L 44.4375 14.40625 
L 68.0625 66.21875 
L 86.8125 66.21875 
L 86.8125 64.40625 
L 84.515625 64.40625 
Q 80.28125 64.40625 78.515625 61.859375 
Q 77.4375 60.296875 77.4375 54.734375 
L 77.4375 11.46875 
Q 77.4375 5.375 78.8125 3.859375 
Q 80.609375 1.8125 84.515625 1.8125 
L 86.8125 1.8125 
L 86.8125 0 
L 58.6875 0 
L 58.6875 1.8125 
L 61.03125 1.8125 
Q 65.28125 1.8125 67 4.34375 
Q 68.0625 5.90625 68.0625 11.46875 
L 68.0625 55.71875 
L 42.53125 0 
z
" id="TimesNewRomanPSMT-4d"/>
      <path d="M 29.890625 36.71875 
L 54.296875 12.453125 
Q 60.296875 6.453125 64.546875 4.265625 
Q 68.796875 2.09375 73.046875 1.8125 
L 73.046875 0 
L 41.546875 0 
L 41.546875 1.8125 
Q 44.390625 1.8125 45.625 2.765625 
Q 46.875 3.71875 46.875 4.890625 
Q 46.875 6.0625 46.40625 6.984375 
Q 45.953125 7.90625 43.359375 10.453125 
L 20.515625 33.0625 
L 20.515625 11.71875 
Q 20.515625 6.6875 21.140625 5.078125 
Q 21.625 3.859375 23.1875 2.984375 
Q 25.296875 1.8125 27.640625 1.8125 
L 29.890625 1.8125 
L 29.890625 0 
L 1.65625 0 
L 1.65625 1.8125 
L 4 1.8125 
Q 8.109375 1.8125 9.96875 4.203125 
Q 11.140625 5.765625 11.140625 11.71875 
L 11.140625 54.5 
Q 11.140625 59.515625 10.5 61.1875 
Q 10.015625 62.359375 8.5 63.234375 
Q 6.34375 64.40625 4 64.40625 
L 1.65625 64.40625 
L 1.65625 66.21875 
L 29.890625 66.21875 
L 29.890625 64.40625 
L 27.640625 64.40625 
Q 25.34375 64.40625 23.1875 63.28125 
Q 21.6875 62.5 21.09375 60.9375 
Q 20.515625 59.375 20.515625 54.5 
L 20.515625 34.234375 
Q 21.484375 35.15625 27.203125 40.4375 
Q 41.703125 53.71875 44.734375 58.15625 
Q 46.046875 60.109375 46.046875 61.578125 
Q 46.046875 62.703125 45.015625 63.546875 
Q 44 64.40625 41.546875 64.40625 
L 40.046875 64.40625 
L 40.046875 66.21875 
L 64.359375 66.21875 
L 64.359375 64.40625 
Q 62.203125 64.359375 60.4375 63.8125 
Q 58.6875 63.28125 56.140625 61.734375 
Q 53.609375 60.203125 49.90625 56.78125 
Q 48.828125 55.8125 39.984375 46.78125 
z
" id="TimesNewRomanPSMT-4b"/>
      <path d="M 20.515625 31 
L 20.515625 11.71875 
Q 20.515625 5.46875 21.875 3.953125 
Q 23.734375 1.8125 27.484375 1.8125 
L 30.03125 1.8125 
L 30.03125 0 
L 1.65625 0 
L 1.65625 1.8125 
L 4.15625 1.8125 
Q 8.34375 1.8125 10.15625 4.546875 
Q 11.140625 6.0625 11.140625 11.71875 
L 11.140625 54.5 
Q 11.140625 60.75 9.8125 62.25 
Q 7.90625 64.40625 4.15625 64.40625 
L 1.65625 64.40625 
L 1.65625 66.21875 
L 25.921875 66.21875 
Q 34.8125 66.21875 39.9375 64.375 
Q 45.0625 62.546875 48.578125 58.203125 
Q 52.09375 53.859375 52.09375 47.90625 
Q 52.09375 39.796875 46.75 34.71875 
Q 41.40625 29.640625 31.640625 29.640625 
Q 29.25 29.640625 26.46875 29.984375 
Q 23.6875 30.328125 20.515625 31 
z
M 20.515625 33.796875 
Q 23.09375 33.296875 25.09375 33.046875 
Q 27.09375 32.8125 28.515625 32.8125 
Q 33.59375 32.8125 37.28125 36.734375 
Q 40.96875 40.671875 40.96875 46.921875 
Q 40.96875 51.21875 39.203125 54.90625 
Q 37.453125 58.59375 34.21875 60.421875 
Q 31 62.25 26.90625 62.25 
Q 24.421875 62.25 20.515625 61.328125 
z
" id="TimesNewRomanPSMT-50"/>
      <path d="M 41.0625 -19.875 
L 41.0625 -21.578125 
Q 32.90625 -20.453125 27.796875 -14.953125 
Q 22.703125 -9.46875 22.703125 -2.78125 
Q 22.703125 0.734375 23.828125 5.390625 
Q 24.953125 10.0625 24.953125 12.640625 
Q 24.953125 16.15625 22 19.203125 
Q 19.046875 22.265625 13.8125 22.953125 
L 13.8125 24.953125 
Q 19.046875 25.640625 22 28.65625 
Q 24.953125 31.6875 24.953125 35.25 
Q 24.953125 37.84375 23.828125 42.484375 
Q 22.703125 47.125 22.703125 50.6875 
Q 22.703125 57.328125 27.796875 62.84375 
Q 32.90625 68.359375 41.0625 69.4375 
L 41.0625 67.71875 
Q 35.359375 66.359375 32.6875 63.25 
Q 30.03125 60.15625 30.03125 56.453125 
Q 30.03125 53.5625 31.125 48.84375 
Q 32.234375 44.140625 32.234375 40.828125 
Q 32.234375 35.890625 28.609375 31.25 
Q 25 26.609375 17.828125 24.078125 
Q 24.859375 21.484375 28.546875 16.75 
Q 32.234375 12.015625 32.234375 7.078125 
Q 32.234375 3.765625 31.125 -0.953125 
Q 30.03125 -5.671875 30.03125 -8.546875 
Q 30.03125 -12.25 32.6875 -15.34375 
Q 35.359375 -18.453125 41.0625 -19.875 
z
" id="TimesNewRomanPSMT-7b"/>
      <path d="M 7.71875 39.203125 
L 5.078125 53.65625 
Q 3.953125 59.671875 3.953125 61.765625 
Q 3.953125 64.890625 5.21875 66.296875 
Q 6.5 67.71875 8.6875 67.71875 
Q 10.890625 67.71875 12.328125 66.28125 
Q 13.765625 64.84375 13.765625 62.5 
Q 13.765625 60.6875 12.5 53.609375 
L 9.859375 39.203125 
z
" id="TimesNewRomanPSMT-27"/>
      <path d="M 16.21875 46.046875 
L 16.21875 35.984375 
Q 21.828125 46.046875 27.734375 46.046875 
Q 30.421875 46.046875 32.171875 44.40625 
Q 33.9375 42.78125 33.9375 40.625 
Q 33.9375 38.71875 32.65625 37.390625 
Q 31.390625 36.078125 29.640625 36.078125 
Q 27.9375 36.078125 25.8125 37.765625 
Q 23.6875 39.453125 22.65625 39.453125 
Q 21.78125 39.453125 20.75 38.484375 
Q 18.5625 36.46875 16.21875 31.890625 
L 16.21875 10.453125 
Q 16.21875 6.734375 17.140625 4.828125 
Q 17.78125 3.515625 19.390625 2.640625 
Q 21 1.765625 24.03125 1.765625 
L 24.03125 0 
L 1.125 0 
L 1.125 1.765625 
Q 4.546875 1.765625 6.203125 2.828125 
Q 7.421875 3.609375 7.90625 5.328125 
Q 8.15625 6.15625 8.15625 10.0625 
L 8.15625 27.390625 
Q 8.15625 35.203125 7.828125 36.6875 
Q 7.515625 38.1875 6.65625 38.859375 
Q 5.8125 39.546875 4.546875 39.546875 
Q 3.03125 39.546875 1.125 38.8125 
L 0.640625 40.578125 
L 14.15625 46.046875 
z
" id="TimesNewRomanPSMT-72"/>
      <path d="M 20.609375 41.21875 
L 20.609375 11.8125 
Q 20.609375 5.5625 21.96875 3.90625 
Q 23.78125 1.765625 26.8125 1.765625 
L 30.859375 1.765625 
L 30.859375 0 
L 4.15625 0 
L 4.15625 1.765625 
L 6.15625 1.765625 
Q 8.109375 1.765625 9.71875 2.734375 
Q 11.328125 3.71875 11.9375 5.375 
Q 12.546875 7.03125 12.546875 11.8125 
L 12.546875 41.21875 
L 3.859375 41.21875 
L 3.859375 44.734375 
L 12.546875 44.734375 
L 12.546875 47.65625 
Q 12.546875 54.34375 14.6875 58.984375 
Q 16.84375 63.625 21.265625 66.484375 
Q 25.6875 69.34375 31.203125 69.34375 
Q 36.328125 69.34375 40.625 66.015625 
Q 43.453125 63.8125 43.453125 61.078125 
Q 43.453125 59.625 42.1875 58.328125 
Q 40.921875 57.03125 39.453125 57.03125 
Q 38.328125 57.03125 37.078125 57.828125 
Q 35.84375 58.640625 34.03125 61.296875 
Q 32.234375 63.96875 30.71875 64.890625 
Q 29.203125 65.828125 27.34375 65.828125 
Q 25.09375 65.828125 23.53125 64.625 
Q 21.96875 63.421875 21.28125 60.90625 
Q 20.609375 58.40625 20.609375 47.953125 
L 20.609375 44.734375 
L 32.125 44.734375 
L 32.125 41.21875 
z
" id="TimesNewRomanPSMT-66"/>
      <path d="M 16.265625 69.4375 
L 16.265625 36.71875 
Q 21.6875 42.671875 24.859375 44.359375 
Q 28.03125 46.046875 31.203125 46.046875 
Q 35.015625 46.046875 37.75 43.9375 
Q 40.484375 41.84375 41.796875 37.359375 
Q 42.71875 34.234375 42.71875 25.921875 
L 42.71875 10.109375 
Q 42.71875 5.859375 43.40625 4.296875 
Q 43.890625 3.125 45.0625 2.4375 
Q 46.234375 1.765625 49.359375 1.765625 
L 49.359375 0 
L 27.390625 0 
L 27.390625 1.765625 
L 28.421875 1.765625 
Q 31.546875 1.765625 32.765625 2.703125 
Q 33.984375 3.65625 34.46875 5.515625 
Q 34.625 6.296875 34.625 10.109375 
L 34.625 25.921875 
Q 34.625 33.25 33.859375 35.546875 
Q 33.109375 37.84375 31.4375 38.984375 
Q 29.78125 40.140625 27.4375 40.140625 
Q 25.046875 40.140625 22.453125 38.859375 
Q 19.875 37.59375 16.265625 33.734375 
L 16.265625 10.109375 
Q 16.265625 5.515625 16.765625 4.390625 
Q 17.28125 3.265625 18.671875 2.515625 
Q 20.0625 1.765625 23.484375 1.765625 
L 23.484375 0 
L 1.3125 0 
L 1.3125 1.765625 
Q 4.296875 1.765625 6 2.6875 
Q 6.984375 3.171875 7.5625 4.53125 
Q 8.15625 5.90625 8.15625 10.109375 
L 8.15625 50.59375 
Q 8.15625 58.25 7.78125 60 
Q 7.421875 61.765625 6.65625 62.390625 
Q 5.90625 63.03125 4.640625 63.03125 
Q 3.609375 63.03125 1.3125 62.25 
L 0.640625 63.96875 
L 14.015625 69.4375 
z
" id="TimesNewRomanPSMT-68"/>
      <path d="M 18.5 69.4375 
L 18.5 10.109375 
Q 18.5 5.90625 19.109375 4.53125 
Q 19.734375 3.171875 21 2.46875 
Q 22.265625 1.765625 25.734375 1.765625 
L 25.734375 0 
L 3.8125 0 
L 3.8125 1.765625 
Q 6.890625 1.765625 8 2.390625 
Q 9.125 3.03125 9.765625 4.484375 
Q 10.40625 5.953125 10.40625 10.109375 
L 10.40625 50.734375 
Q 10.40625 58.296875 10.0625 60.03125 
Q 9.71875 61.765625 8.953125 62.390625 
Q 8.203125 63.03125 7.03125 63.03125 
Q 5.765625 63.03125 3.8125 62.25 
L 2.984375 63.96875 
L 16.3125 69.4375 
z
" id="TimesNewRomanPSMT-6c"/>
      <path d="M 5.375 -16.65625 
L 5.375 -14.5 
Q 10.40625 -12.84375 13.15625 -9.34375 
Q 15.921875 -5.859375 15.921875 -1.953125 
Q 15.921875 -1.03125 15.484375 -0.390625 
Q 15.140625 0.046875 14.796875 0.046875 
Q 14.265625 0.046875 12.453125 -0.921875 
Q 11.578125 -1.375 10.59375 -1.375 
Q 8.203125 -1.375 6.78125 0.046875 
Q 5.375 1.46875 5.375 3.953125 
Q 5.375 6.34375 7.203125 8.046875 
Q 9.03125 9.765625 11.671875 9.765625 
Q 14.890625 9.765625 17.40625 6.953125 
Q 19.921875 4.15625 19.921875 -0.484375 
Q 19.921875 -5.515625 16.421875 -9.828125 
Q 12.9375 -14.15625 5.375 -16.65625 
z
" id="TimesNewRomanPSMT-2c"/>
      <path d="M -0.09375 40.28125 
L 13.671875 45.84375 
L 15.53125 45.84375 
L 15.53125 35.40625 
Q 19 41.3125 22.484375 43.671875 
Q 25.984375 46.046875 29.828125 46.046875 
Q 36.578125 46.046875 41.0625 40.765625 
Q 46.578125 34.328125 46.578125 23.96875 
Q 46.578125 12.40625 39.9375 4.828125 
Q 34.46875 -1.375 26.171875 -1.375 
Q 22.5625 -1.375 19.921875 -0.34375 
Q 17.96875 0.390625 15.53125 2.59375 
L 15.53125 -11.03125 
Q 15.53125 -15.625 16.09375 -16.859375 
Q 16.65625 -18.109375 18.046875 -18.84375 
Q 19.4375 -19.578125 23.09375 -19.578125 
L 23.09375 -21.390625 
L -0.34375 -21.390625 
L -0.34375 -19.578125 
L 0.875 -19.578125 
Q 3.5625 -19.625 5.46875 -18.5625 
Q 6.390625 -18.015625 6.90625 -16.8125 
Q 7.421875 -15.625 7.421875 -10.75 
L 7.421875 31.546875 
Q 7.421875 35.890625 7.03125 37.0625 
Q 6.640625 38.234375 5.78125 38.8125 
Q 4.9375 39.40625 3.46875 39.40625 
Q 2.296875 39.40625 0.484375 38.71875 
z
M 15.53125 32.515625 
L 15.53125 15.828125 
Q 15.53125 10.40625 15.96875 8.6875 
Q 16.65625 5.859375 19.3125 3.703125 
Q 21.96875 1.5625 26.03125 1.5625 
Q 30.90625 1.5625 33.9375 5.375 
Q 37.890625 10.359375 37.890625 19.390625 
Q 37.890625 29.640625 33.40625 35.15625 
Q 30.28125 38.96875 25.984375 38.96875 
Q 23.640625 38.96875 21.34375 37.796875 
Q 19.578125 36.921875 15.53125 32.515625 
z
" id="TimesNewRomanPSMT-70"/>
      <path d="M 16.359375 69.4375 
L 16.359375 24.953125 
L 27.734375 35.296875 
Q 31.34375 38.625 31.9375 39.5 
Q 32.328125 40.09375 32.328125 40.671875 
Q 32.328125 41.65625 31.515625 42.359375 
Q 30.71875 43.0625 28.859375 43.171875 
L 28.859375 44.734375 
L 48.296875 44.734375 
L 48.296875 43.171875 
Q 44.28125 43.0625 41.625 41.9375 
Q 38.96875 40.828125 35.796875 37.9375 
L 24.3125 27.34375 
L 35.796875 12.84375 
Q 40.578125 6.84375 42.234375 5.21875 
Q 44.578125 2.9375 46.34375 2.25 
Q 47.5625 1.765625 50.59375 1.765625 
L 50.59375 0 
L 28.859375 0 
L 28.859375 1.765625 
Q 30.71875 1.8125 31.375 2.3125 
Q 32.03125 2.828125 32.03125 3.765625 
Q 32.03125 4.890625 30.078125 7.375 
L 16.359375 24.90625 
L 16.359375 10.0625 
Q 16.359375 5.71875 16.96875 4.34375 
Q 17.578125 2.984375 18.703125 2.390625 
Q 19.828125 1.8125 23.578125 1.765625 
L 23.578125 0 
L 0.828125 0 
L 0.828125 1.765625 
Q 4.25 1.765625 5.953125 2.59375 
Q 6.984375 3.125 7.515625 4.25 
Q 8.25 5.859375 8.25 9.8125 
L 8.25 50.53125 
Q 8.25 58.296875 7.90625 60.03125 
Q 7.5625 61.765625 6.78125 62.421875 
Q 6 63.09375 4.734375 63.09375 
Q 3.71875 63.09375 1.65625 62.25 
L 0.828125 63.96875 
L 14.109375 69.4375 
z
" id="TimesNewRomanPSMT-6b"/>
      <path d="M 0.59375 44.734375 
L 21.4375 44.734375 
L 21.4375 42.921875 
L 20.40625 42.921875 
Q 18.21875 42.921875 17.109375 41.96875 
Q 16.015625 41.015625 16.015625 39.59375 
Q 16.015625 37.703125 17.625 34.328125 
L 28.515625 11.765625 
L 38.53125 36.46875 
Q 39.359375 38.484375 39.359375 40.4375 
Q 39.359375 41.3125 39.015625 41.75 
Q 38.625 42.28125 37.796875 42.59375 
Q 36.96875 42.921875 34.859375 42.921875 
L 34.859375 44.734375 
L 49.421875 44.734375 
L 49.421875 42.921875 
Q 47.609375 42.71875 46.625 42.125 
Q 45.65625 41.546875 44.484375 39.9375 
Q 44.046875 39.265625 42.828125 36.1875 
L 24.609375 -8.453125 
Q 21.96875 -14.9375 17.6875 -18.25 
Q 13.421875 -21.578125 9.46875 -21.578125 
Q 6.59375 -21.578125 4.734375 -19.921875 
Q 2.875 -18.265625 2.875 -16.109375 
Q 2.875 -14.0625 4.21875 -12.8125 
Q 5.5625 -11.578125 7.90625 -11.578125 
Q 9.515625 -11.578125 12.3125 -12.640625 
Q 14.265625 -13.375 14.75 -13.375 
Q 16.21875 -13.375 17.9375 -11.859375 
Q 19.671875 -10.359375 21.4375 -6 
L 24.609375 1.765625 
L 8.546875 35.5 
Q 7.8125 37.015625 6.203125 39.265625 
Q 4.984375 40.96875 4.203125 41.546875 
Q 3.078125 42.328125 0.59375 42.921875 
z
" id="TimesNewRomanPSMT-79"/>
      <path d="M 8.640625 67.71875 
L 8.640625 69.4375 
Q 16.796875 68.359375 21.890625 62.859375 
Q 27 57.375 27 50.640625 
Q 27 47.125 25.875 42.484375 
Q 24.75 37.84375 24.75 35.25 
Q 24.75 31.734375 27.703125 28.6875 
Q 30.671875 25.640625 35.890625 24.953125 
L 35.890625 22.953125 
Q 30.671875 22.265625 27.703125 19.203125 
Q 24.75 16.15625 24.75 12.640625 
Q 24.75 10.0625 25.875 5.390625 
Q 27 0.734375 27 -2.78125 
Q 27 -9.421875 21.890625 -14.9375 
Q 16.796875 -20.453125 8.640625 -21.578125 
L 8.640625 -19.875 
Q 14.359375 -18.453125 17.015625 -15.375 
Q 19.671875 -12.3125 19.671875 -8.546875 
Q 19.671875 -5.671875 18.546875 -0.953125 
Q 17.4375 3.765625 17.4375 7.03125 
Q 17.4375 12.015625 21.0625 16.65625 
Q 24.703125 21.296875 31.890625 23.828125 
Q 24.859375 26.421875 21.140625 31.15625 
Q 17.4375 35.890625 17.4375 40.828125 
Q 17.4375 44.140625 18.546875 48.84375 
Q 19.671875 53.5625 19.671875 56.453125 
Q 19.671875 60.15625 17.015625 63.25 
Q 14.359375 66.359375 8.640625 67.71875 
z
" id="TimesNewRomanPSMT-7d"/>
     </defs>
     <g transform="translate(152.375469 10.7312)scale(0.11 -0.11)">
      <use xlink:href="#TimesNewRomanPSMT-4d"/>
      <use x="88.916016" xlink:href="#TimesNewRomanPSMT-4b"/>
      <use x="161.132812" xlink:href="#TimesNewRomanPSMT-4b"/>
      <use x="233.349609" xlink:href="#TimesNewRomanPSMT-4b"/>
      <use x="305.566406" xlink:href="#TimesNewRomanPSMT-50"/>
      <use x="361.134766" xlink:href="#TimesNewRomanPSMT-20"/>
      <use x="386.134766" xlink:href="#TimesNewRomanPSMT-7b"/>
      <use x="434.132812" xlink:href="#TimesNewRomanPSMT-27"/>
      <use x="452.150391" xlink:href="#TimesNewRomanPSMT-63"/>
      <use x="496.535156" xlink:href="#TimesNewRomanPSMT-6f"/>
      <use x="546.535156" xlink:href="#TimesNewRomanPSMT-6e"/>
      <use x="596.535156" xlink:href="#TimesNewRomanPSMT-63"/>
      <use x="640.919922" xlink:href="#TimesNewRomanPSMT-65"/>
      <use x="685.304688" xlink:href="#TimesNewRomanPSMT-6e"/>
      <use x="735.304688" xlink:href="#TimesNewRomanPSMT-74"/>
      <use x="763.087891" xlink:href="#TimesNewRomanPSMT-72"/>
      <use x="796.388672" xlink:href="#TimesNewRomanPSMT-61"/>
      <use x="840.773438" xlink:href="#TimesNewRomanPSMT-74"/>
      <use x="868.556641" xlink:href="#TimesNewRomanPSMT-69"/>
      <use x="896.339844" xlink:href="#TimesNewRomanPSMT-6f"/>
      <use x="946.339844" xlink:href="#TimesNewRomanPSMT-6e"/>
      <use x="996.339844" xlink:href="#TimesNewRomanPSMT-20"/>
      <use x="1021.339844" xlink:href="#TimesNewRomanPSMT-6f"/>
      <use x="1071.339844" xlink:href="#TimesNewRomanPSMT-66"/>
      <use x="1104.640625" xlink:href="#TimesNewRomanPSMT-20"/>
      <use x="1129.640625" xlink:href="#TimesNewRomanPSMT-63"/>
      <use x="1174.025391" xlink:href="#TimesNewRomanPSMT-68"/>
      <use x="1224.025391" xlink:href="#TimesNewRomanPSMT-65"/>
      <use x="1268.410156" xlink:href="#TimesNewRomanPSMT-6d"/>
      <use x="1346.193359" xlink:href="#TimesNewRomanPSMT-69"/>
      <use x="1373.976562" xlink:href="#TimesNewRomanPSMT-63"/>
      <use x="1418.361328" xlink:href="#TimesNewRomanPSMT-61"/>
      <use x="1462.746094" xlink:href="#TimesNewRomanPSMT-6c"/>
      <use x="1490.529297" xlink:href="#TimesNewRomanPSMT-27"/>
      <use x="1508.546875" xlink:href="#TimesNewRomanPSMT-2c"/>
      <use x="1533.546875" xlink:href="#TimesNewRomanPSMT-20"/>
      <use x="1558.546875" xlink:href="#TimesNewRomanPSMT-27"/>
      <use x="1576.564453" xlink:href="#TimesNewRomanPSMT-61"/>
      <use x="1620.949219" xlink:href="#TimesNewRomanPSMT-63"/>
      <use x="1665.333984" xlink:href="#TimesNewRomanPSMT-74"/>
      <use x="1693.117188" xlink:href="#TimesNewRomanPSMT-69"/>
      <use x="1720.900391" xlink:href="#TimesNewRomanPSMT-76"/>
      <use x="1770.900391" xlink:href="#TimesNewRomanPSMT-61"/>
      <use x="1815.285156" xlink:href="#TimesNewRomanPSMT-74"/>
      <use x="1843.068359" xlink:href="#TimesNewRomanPSMT-69"/>
      <use x="1870.851562" xlink:href="#TimesNewRomanPSMT-6f"/>
      <use x="1920.851562" xlink:href="#TimesNewRomanPSMT-6e"/>
      <use x="1970.851562" xlink:href="#TimesNewRomanPSMT-20"/>
      <use x="1995.851562" xlink:href="#TimesNewRomanPSMT-6f"/>
      <use x="2045.851562" xlink:href="#TimesNewRomanPSMT-66"/>
      <use x="2079.152344" xlink:href="#TimesNewRomanPSMT-20"/>
      <use x="2104.152344" xlink:href="#TimesNewRomanPSMT-6d"/>
      <use x="2181.935547" xlink:href="#TimesNewRomanPSMT-61"/>
      <use x="2226.320312" xlink:href="#TimesNewRomanPSMT-70"/>
      <use x="2276.320312" xlink:href="#TimesNewRomanPSMT-6b"/>
      <use x="2326.320312" xlink:href="#TimesNewRomanPSMT-6b"/>
      <use x="2376.320312" xlink:href="#TimesNewRomanPSMT-6b"/>
      <use x="2426.320312" xlink:href="#TimesNewRomanPSMT-20"/>
      <use x="2451.320312" xlink:href="#TimesNewRomanPSMT-61"/>
      <use x="2495.705078" xlink:href="#TimesNewRomanPSMT-63"/>
      <use x="2540.089844" xlink:href="#TimesNewRomanPSMT-74"/>
      <use x="2567.873047" xlink:href="#TimesNewRomanPSMT-69"/>
      <use x="2595.65625" xlink:href="#TimesNewRomanPSMT-76"/>
      <use x="2645.65625" xlink:href="#TimesNewRomanPSMT-69"/>
      <use x="2673.439453" xlink:href="#TimesNewRomanPSMT-74"/>
      <use x="2701.222656" xlink:href="#TimesNewRomanPSMT-79"/>
      <use x="2751.222656" xlink:href="#TimesNewRomanPSMT-27"/>
      <use x="2769.240234" xlink:href="#TimesNewRomanPSMT-7d"/>
     </g>
    </g>
    <g id="line2d_28">
     <path d="M 121.575469 22.454794 
L 143.575469 22.454794 
" style="fill:none;stroke:#000000;stroke-dasharray:9.25,4;stroke-dashoffset:0;stroke-width:2.5;"/>
    </g>
    <g id="line2d_29">
     <g>
      <use style="stroke:#000000;" x="132.575469" xlink:href="#m9f8b726e17" y="22.454794"/>
     </g>
    </g>
    <g id="text_15">
     <!-- MKKPP {'concentration of chemical', 'mitogen-activated protein kinase kinase binding'} -->
     <defs>
      <path d="M 15.09375 16.3125 
Q 10.984375 18.3125 8.78125 21.890625 
Q 6.59375 25.484375 6.59375 29.828125 
Q 6.59375 36.46875 11.59375 41.25 
Q 16.609375 46.046875 24.421875 46.046875 
Q 30.8125 46.046875 35.5 42.921875 
L 44.96875 42.921875 
Q 47.078125 42.921875 47.40625 42.796875 
Q 47.75 42.671875 47.90625 42.390625 
Q 48.1875 41.9375 48.1875 40.828125 
Q 48.1875 39.546875 47.953125 39.0625 
Q 47.796875 38.8125 47.4375 38.671875 
Q 47.078125 38.53125 44.96875 38.53125 
L 39.15625 38.53125 
Q 41.890625 35.015625 41.890625 29.546875 
Q 41.890625 23.296875 37.109375 18.84375 
Q 32.328125 14.40625 24.265625 14.40625 
Q 20.953125 14.40625 17.484375 15.375 
Q 15.328125 13.53125 14.5625 12.140625 
Q 13.8125 10.75 13.8125 9.765625 
Q 13.8125 8.9375 14.625 8.15625 
Q 15.4375 7.375 17.78125 7.03125 
Q 19.140625 6.84375 24.609375 6.6875 
Q 34.671875 6.453125 37.640625 6 
Q 42.1875 5.375 44.890625 2.640625 
Q 47.609375 -0.09375 47.609375 -4.109375 
Q 47.609375 -9.625 42.4375 -14.453125 
Q 34.8125 -21.578125 22.5625 -21.578125 
Q 13.140625 -21.578125 6.640625 -17.328125 
Q 2.984375 -14.890625 2.984375 -12.25 
Q 2.984375 -11.078125 3.515625 -9.90625 
Q 4.34375 -8.109375 6.9375 -4.890625 
Q 7.28125 -4.4375 11.921875 0.390625 
Q 9.375 1.90625 8.328125 3.09375 
Q 7.28125 4.296875 7.28125 5.8125 
Q 7.28125 7.515625 8.671875 9.8125 
Q 10.0625 12.109375 15.09375 16.3125 
z
M 23.578125 43.703125 
Q 19.96875 43.703125 17.53125 40.8125 
Q 15.09375 37.9375 15.09375 31.984375 
Q 15.09375 24.265625 18.40625 20.015625 
Q 20.953125 16.796875 24.859375 16.796875 
Q 28.5625 16.796875 30.953125 19.578125 
Q 33.34375 22.359375 33.34375 28.328125 
Q 33.34375 36.078125 29.984375 40.484375 
Q 27.484375 43.703125 23.578125 43.703125 
z
M 14.59375 0 
Q 12.3125 -2.484375 11.140625 -4.625 
Q 9.96875 -6.78125 9.96875 -8.59375 
Q 9.96875 -10.9375 12.796875 -12.703125 
Q 17.671875 -15.71875 26.90625 -15.71875 
Q 35.6875 -15.71875 39.859375 -12.609375 
Q 44.046875 -9.515625 44.046875 -6 
Q 44.046875 -3.46875 41.546875 -2.390625 
Q 39.015625 -1.3125 31.5 -1.125 
Q 20.515625 -0.828125 14.59375 0 
z
" id="TimesNewRomanPSMT-67"/>
      <path d="M 4.046875 26.125 
L 29.296875 26.125 
L 29.296875 18.75 
L 4.046875 18.75 
z
" id="TimesNewRomanPSMT-2d"/>
      <path d="M 34.71875 5.03125 
Q 31.453125 1.609375 28.328125 0.109375 
Q 25.203125 -1.375 21.578125 -1.375 
Q 14.265625 -1.375 8.796875 4.75 
Q 3.328125 10.890625 3.328125 20.515625 
Q 3.328125 30.125 9.375 38.109375 
Q 15.4375 46.09375 24.953125 46.09375 
Q 30.859375 46.09375 34.71875 42.328125 
L 34.71875 50.59375 
Q 34.71875 58.25 34.34375 60 
Q 33.984375 61.765625 33.203125 62.390625 
Q 32.421875 63.03125 31.25 63.03125 
Q 29.984375 63.03125 27.875 62.25 
L 27.25 63.96875 
L 40.578125 69.4375 
L 42.78125 69.4375 
L 42.78125 17.71875 
Q 42.78125 9.859375 43.140625 8.125 
Q 43.5 6.390625 44.3125 5.703125 
Q 45.125 5.03125 46.1875 5.03125 
Q 47.515625 5.03125 49.703125 5.859375 
L 50.25 4.15625 
L 36.96875 -1.375 
L 34.71875 -1.375 
z
M 34.71875 8.453125 
L 34.71875 31.5 
Q 34.421875 34.8125 32.953125 37.546875 
Q 31.5 40.28125 29.078125 41.671875 
Q 26.65625 43.0625 24.359375 43.0625 
Q 20.0625 43.0625 16.703125 39.203125 
Q 12.25 34.125 12.25 24.359375 
Q 12.25 14.5 16.546875 9.25 
Q 20.84375 4 26.125 4 
Q 30.5625 4 34.71875 8.453125 
z
" id="TimesNewRomanPSMT-64"/>
      <path d="M 15.375 37.015625 
Q 21.875 46.046875 29.390625 46.046875 
Q 36.28125 46.046875 41.40625 40.15625 
Q 46.53125 34.28125 46.53125 24.078125 
Q 46.53125 12.15625 38.625 4.890625 
Q 31.84375 -1.375 23.484375 -1.375 
Q 19.578125 -1.375 15.546875 0.046875 
Q 11.53125 1.46875 7.328125 4.296875 
L 7.328125 50.640625 
Q 7.328125 58.25 6.953125 60 
Q 6.59375 61.765625 5.8125 62.390625 
Q 5.03125 63.03125 3.859375 63.03125 
Q 2.484375 63.03125 0.4375 62.25 
L -0.25 63.96875 
L 13.1875 69.4375 
L 15.375 69.4375 
z
M 15.375 33.890625 
L 15.375 7.125 
Q 17.875 4.6875 20.53125 3.4375 
Q 23.1875 2.203125 25.984375 2.203125 
Q 30.421875 2.203125 34.25 7.078125 
Q 38.09375 11.96875 38.09375 21.296875 
Q 38.09375 29.890625 34.25 34.5 
Q 30.421875 39.109375 25.53125 39.109375 
Q 22.953125 39.109375 20.359375 37.796875 
Q 18.40625 36.8125 15.375 33.890625 
z
" id="TimesNewRomanPSMT-62"/>
     </defs>
     <g transform="translate(152.375469 26.304794)scale(0.11 -0.11)">
      <use xlink:href="#TimesNewRomanPSMT-4d"/>
      <use x="88.916016" xlink:href="#TimesNewRomanPSMT-4b"/>
      <use x="161.132812" xlink:href="#TimesNewRomanPSMT-4b"/>
      <use x="233.349609" xlink:href="#TimesNewRomanPSMT-50"/>
      <use x="288.964844" xlink:href="#TimesNewRomanPSMT-50"/>
      <use x="344.533203" xlink:href="#TimesNewRomanPSMT-20"/>
      <use x="369.533203" xlink:href="#TimesNewRomanPSMT-7b"/>
      <use x="417.53125" xlink:href="#TimesNewRomanPSMT-27"/>
      <use x="435.548828" xlink:href="#TimesNewRomanPSMT-63"/>
      <use x="479.933594" xlink:href="#TimesNewRomanPSMT-6f"/>
      <use x="529.933594" xlink:href="#TimesNewRomanPSMT-6e"/>
      <use x="579.933594" xlink:href="#TimesNewRomanPSMT-63"/>
      <use x="624.318359" xlink:href="#TimesNewRomanPSMT-65"/>
      <use x="668.703125" xlink:href="#TimesNewRomanPSMT-6e"/>
      <use x="718.703125" xlink:href="#TimesNewRomanPSMT-74"/>
      <use x="746.486328" xlink:href="#TimesNewRomanPSMT-72"/>
      <use x="779.787109" xlink:href="#TimesNewRomanPSMT-61"/>
      <use x="824.171875" xlink:href="#TimesNewRomanPSMT-74"/>
      <use x="851.955078" xlink:href="#TimesNewRomanPSMT-69"/>
      <use x="879.738281" xlink:href="#TimesNewRomanPSMT-6f"/>
      <use x="929.738281" xlink:href="#TimesNewRomanPSMT-6e"/>
      <use x="979.738281" xlink:href="#TimesNewRomanPSMT-20"/>
      <use x="1004.738281" xlink:href="#TimesNewRomanPSMT-6f"/>
      <use x="1054.738281" xlink:href="#TimesNewRomanPSMT-66"/>
      <use x="1088.039062" xlink:href="#TimesNewRomanPSMT-20"/>
      <use x="1113.039062" xlink:href="#TimesNewRomanPSMT-63"/>
      <use x="1157.423828" xlink:href="#TimesNewRomanPSMT-68"/>
      <use x="1207.423828" xlink:href="#TimesNewRomanPSMT-65"/>
      <use x="1251.808594" xlink:href="#TimesNewRomanPSMT-6d"/>
      <use x="1329.591797" xlink:href="#TimesNewRomanPSMT-69"/>
      <use x="1357.375" xlink:href="#TimesNewRomanPSMT-63"/>
      <use x="1401.759766" xlink:href="#TimesNewRomanPSMT-61"/>
      <use x="1446.144531" xlink:href="#TimesNewRomanPSMT-6c"/>
      <use x="1473.927734" xlink:href="#TimesNewRomanPSMT-27"/>
      <use x="1491.945312" xlink:href="#TimesNewRomanPSMT-2c"/>
      <use x="1516.945312" xlink:href="#TimesNewRomanPSMT-20"/>
      <use x="1541.945312" xlink:href="#TimesNewRomanPSMT-27"/>
      <use x="1559.962891" xlink:href="#TimesNewRomanPSMT-6d"/>
      <use x="1637.746094" xlink:href="#TimesNewRomanPSMT-69"/>
      <use x="1665.529297" xlink:href="#TimesNewRomanPSMT-74"/>
      <use x="1693.3125" xlink:href="#TimesNewRomanPSMT-6f"/>
      <use x="1743.3125" xlink:href="#TimesNewRomanPSMT-67"/>
      <use x="1793.3125" xlink:href="#TimesNewRomanPSMT-65"/>
      <use x="1837.697266" xlink:href="#TimesNewRomanPSMT-6e"/>
      <use x="1887.697266" xlink:href="#TimesNewRomanPSMT-2d"/>
      <use x="1920.998047" xlink:href="#TimesNewRomanPSMT-61"/>
      <use x="1965.382812" xlink:href="#TimesNewRomanPSMT-63"/>
      <use x="2009.767578" xlink:href="#TimesNewRomanPSMT-74"/>
      <use x="2037.550781" xlink:href="#TimesNewRomanPSMT-69"/>
      <use x="2065.333984" xlink:href="#TimesNewRomanPSMT-76"/>
      <use x="2115.333984" xlink:href="#TimesNewRomanPSMT-61"/>
      <use x="2159.71875" xlink:href="#TimesNewRomanPSMT-74"/>
      <use x="2187.501953" xlink:href="#TimesNewRomanPSMT-65"/>
      <use x="2231.886719" xlink:href="#TimesNewRomanPSMT-64"/>
      <use x="2281.886719" xlink:href="#TimesNewRomanPSMT-20"/>
      <use x="2306.886719" xlink:href="#TimesNewRomanPSMT-70"/>
      <use x="2356.886719" xlink:href="#TimesNewRomanPSMT-72"/>
      <use x="2390.1875" xlink:href="#TimesNewRomanPSMT-6f"/>
      <use x="2440.1875" xlink:href="#TimesNewRomanPSMT-74"/>
      <use x="2467.970703" xlink:href="#TimesNewRomanPSMT-65"/>
      <use x="2512.355469" xlink:href="#TimesNewRomanPSMT-69"/>
      <use x="2540.138672" xlink:href="#TimesNewRomanPSMT-6e"/>
      <use x="2590.138672" xlink:href="#TimesNewRomanPSMT-20"/>
      <use x="2615.138672" xlink:href="#TimesNewRomanPSMT-6b"/>
      <use x="2665.138672" xlink:href="#TimesNewRomanPSMT-69"/>
      <use x="2692.921875" xlink:href="#TimesNewRomanPSMT-6e"/>
      <use x="2742.921875" xlink:href="#TimesNewRomanPSMT-61"/>
      <use x="2787.306641" xlink:href="#TimesNewRomanPSMT-73"/>
      <use x="2826.222656" xlink:href="#TimesNewRomanPSMT-65"/>
      <use x="2870.607422" xlink:href="#TimesNewRomanPSMT-20"/>
      <use x="2895.607422" xlink:href="#TimesNewRomanPSMT-6b"/>
      <use x="2945.607422" xlink:href="#TimesNewRomanPSMT-69"/>
      <use x="2973.390625" xlink:href="#TimesNewRomanPSMT-6e"/>
      <use x="3023.390625" xlink:href="#TimesNewRomanPSMT-61"/>
      <use x="3067.775391" xlink:href="#TimesNewRomanPSMT-73"/>
      <use x="3106.691406" xlink:href="#TimesNewRomanPSMT-65"/>
      <use x="3151.076172" xlink:href="#TimesNewRomanPSMT-20"/>
      <use x="3176.076172" xlink:href="#TimesNewRomanPSMT-62"/>
      <use x="3226.076172" xlink:href="#TimesNewRomanPSMT-69"/>
      <use x="3253.859375" xlink:href="#TimesNewRomanPSMT-6e"/>
      <use x="3303.859375" xlink:href="#TimesNewRomanPSMT-64"/>
      <use x="3353.859375" xlink:href="#TimesNewRomanPSMT-69"/>
      <use x="3381.642578" xlink:href="#TimesNewRomanPSMT-6e"/>
      <use x="3431.642578" xlink:href="#TimesNewRomanPSMT-67"/>
      <use x="3481.642578" xlink:href="#TimesNewRomanPSMT-27"/>
      <use x="3499.660156" xlink:href="#TimesNewRomanPSMT-7d"/>
     </g>
    </g>
    <g id="line2d_30">
     <path d="M 121.575469 38.028387 
L 143.575469 38.028387 
" style="fill:none;stroke:#bc8f8f;stroke-dasharray:9.25,4;stroke-dashoffset:0;stroke-width:2.5;"/>
    </g>
    <g id="line2d_31">
     <g>
      <use style="fill:#bc8f8f;stroke:#bc8f8f;stroke-linejoin:bevel;" x="132.575469" xlink:href="#ma8f03e91b4" y="38.028387"/>
     </g>
    </g>
    <g id="text_16">
     <!-- MKPP {'mitogen-activated protein kinase binding', 'concentration of chemical'} -->
     <g transform="translate(152.375469 41.878387)scale(0.11 -0.11)">
      <use xlink:href="#TimesNewRomanPSMT-4d"/>
      <use x="88.916016" xlink:href="#TimesNewRomanPSMT-4b"/>
      <use x="161.132812" xlink:href="#TimesNewRomanPSMT-50"/>
      <use x="216.748047" xlink:href="#TimesNewRomanPSMT-50"/>
      <use x="272.316406" xlink:href="#TimesNewRomanPSMT-20"/>
      <use x="297.316406" xlink:href="#TimesNewRomanPSMT-7b"/>
      <use x="345.314453" xlink:href="#TimesNewRomanPSMT-27"/>
      <use x="363.332031" xlink:href="#TimesNewRomanPSMT-6d"/>
      <use x="441.115234" xlink:href="#TimesNewRomanPSMT-69"/>
      <use x="468.898438" xlink:href="#TimesNewRomanPSMT-74"/>
      <use x="496.681641" xlink:href="#TimesNewRomanPSMT-6f"/>
      <use x="546.681641" xlink:href="#TimesNewRomanPSMT-67"/>
      <use x="596.681641" xlink:href="#TimesNewRomanPSMT-65"/>
      <use x="641.066406" xlink:href="#TimesNewRomanPSMT-6e"/>
      <use x="691.066406" xlink:href="#TimesNewRomanPSMT-2d"/>
      <use x="724.367188" xlink:href="#TimesNewRomanPSMT-61"/>
      <use x="768.751953" xlink:href="#TimesNewRomanPSMT-63"/>
      <use x="813.136719" xlink:href="#TimesNewRomanPSMT-74"/>
      <use x="840.919922" xlink:href="#TimesNewRomanPSMT-69"/>
      <use x="868.703125" xlink:href="#TimesNewRomanPSMT-76"/>
      <use x="918.703125" xlink:href="#TimesNewRomanPSMT-61"/>
      <use x="963.087891" xlink:href="#TimesNewRomanPSMT-74"/>
      <use x="990.871094" xlink:href="#TimesNewRomanPSMT-65"/>
      <use x="1035.255859" xlink:href="#TimesNewRomanPSMT-64"/>
      <use x="1085.255859" xlink:href="#TimesNewRomanPSMT-20"/>
      <use x="1110.255859" xlink:href="#TimesNewRomanPSMT-70"/>
      <use x="1160.255859" xlink:href="#TimesNewRomanPSMT-72"/>
      <use x="1193.556641" xlink:href="#TimesNewRomanPSMT-6f"/>
      <use x="1243.556641" xlink:href="#TimesNewRomanPSMT-74"/>
      <use x="1271.339844" xlink:href="#TimesNewRomanPSMT-65"/>
      <use x="1315.724609" xlink:href="#TimesNewRomanPSMT-69"/>
      <use x="1343.507812" xlink:href="#TimesNewRomanPSMT-6e"/>
      <use x="1393.507812" xlink:href="#TimesNewRomanPSMT-20"/>
      <use x="1418.507812" xlink:href="#TimesNewRomanPSMT-6b"/>
      <use x="1468.507812" xlink:href="#TimesNewRomanPSMT-69"/>
      <use x="1496.291016" xlink:href="#TimesNewRomanPSMT-6e"/>
      <use x="1546.291016" xlink:href="#TimesNewRomanPSMT-61"/>
      <use x="1590.675781" xlink:href="#TimesNewRomanPSMT-73"/>
      <use x="1629.591797" xlink:href="#TimesNewRomanPSMT-65"/>
      <use x="1673.976562" xlink:href="#TimesNewRomanPSMT-20"/>
      <use x="1698.976562" xlink:href="#TimesNewRomanPSMT-62"/>
      <use x="1748.976562" xlink:href="#TimesNewRomanPSMT-69"/>
      <use x="1776.759766" xlink:href="#TimesNewRomanPSMT-6e"/>
      <use x="1826.759766" xlink:href="#TimesNewRomanPSMT-64"/>
      <use x="1876.759766" xlink:href="#TimesNewRomanPSMT-69"/>
      <use x="1904.542969" xlink:href="#TimesNewRomanPSMT-6e"/>
      <use x="1954.542969" xlink:href="#TimesNewRomanPSMT-67"/>
      <use x="2004.542969" xlink:href="#TimesNewRomanPSMT-27"/>
      <use x="2022.560547" xlink:href="#TimesNewRomanPSMT-2c"/>
      <use x="2047.560547" xlink:href="#TimesNewRomanPSMT-20"/>
      <use x="2072.560547" xlink:href="#TimesNewRomanPSMT-27"/>
      <use x="2090.578125" xlink:href="#TimesNewRomanPSMT-63"/>
      <use x="2134.962891" xlink:href="#TimesNewRomanPSMT-6f"/>
      <use x="2184.962891" xlink:href="#TimesNewRomanPSMT-6e"/>
      <use x="2234.962891" xlink:href="#TimesNewRomanPSMT-63"/>
      <use x="2279.347656" xlink:href="#TimesNewRomanPSMT-65"/>
      <use x="2323.732422" xlink:href="#TimesNewRomanPSMT-6e"/>
      <use x="2373.732422" xlink:href="#TimesNewRomanPSMT-74"/>
      <use x="2401.515625" xlink:href="#TimesNewRomanPSMT-72"/>
      <use x="2434.816406" xlink:href="#TimesNewRomanPSMT-61"/>
      <use x="2479.201172" xlink:href="#TimesNewRomanPSMT-74"/>
      <use x="2506.984375" xlink:href="#TimesNewRomanPSMT-69"/>
      <use x="2534.767578" xlink:href="#TimesNewRomanPSMT-6f"/>
      <use x="2584.767578" xlink:href="#TimesNewRomanPSMT-6e"/>
      <use x="2634.767578" xlink:href="#TimesNewRomanPSMT-20"/>
      <use x="2659.767578" xlink:href="#TimesNewRomanPSMT-6f"/>
      <use x="2709.767578" xlink:href="#TimesNewRomanPSMT-66"/>
      <use x="2743.068359" xlink:href="#TimesNewRomanPSMT-20"/>
      <use x="2768.068359" xlink:href="#TimesNewRomanPSMT-63"/>
      <use x="2812.453125" xlink:href="#TimesNewRomanPSMT-68"/>
      <use x="2862.453125" xlink:href="#TimesNewRomanPSMT-65"/>
      <use x="2906.837891" xlink:href="#TimesNewRomanPSMT-6d"/>
      <use x="2984.621094" xlink:href="#TimesNewRomanPSMT-69"/>
      <use x="3012.404297" xlink:href="#TimesNewRomanPSMT-63"/>
      <use x="3056.789062" xlink:href="#TimesNewRomanPSMT-61"/>
      <use x="3101.173828" xlink:href="#TimesNewRomanPSMT-6c"/>
      <use x="3128.957031" xlink:href="#TimesNewRomanPSMT-27"/>
      <use x="3146.974609" xlink:href="#TimesNewRomanPSMT-7d"/>
     </g>
    </g>
   </g>
  </g>
 </g>
 <defs>
  <clipPath id="pe1e6bf65eb">
   <rect height="326.16" width="502.2" x="81" y="51.84"/>
  </clipPath>
 </defs>
</svg>
